<svg width="369" height="149" viewBox="0 0 369 149" fill="none" xmlns="http://www.w3.org/2000/svg">
<path fill-rule="evenodd" clip-rule="evenodd" d="M31.3195 43.1372H338.293C354.861 43.1372 368.293 56.5687 368.293 73.1372V96.0021C368.293 112.571 354.861 126.002 338.293 126.002H31.3195C14.7511 126.002 1.31979 112.571 1.31979 96.0021V73.1372C1.31979 56.5687 14.7511 43.1372 31.3195 43.1372Z" fill="#272727"/>
<path fill-rule="evenodd" clip-rule="evenodd" d="M316.132 100.616L332.399 84.4419L316.132 68.2669H329.93L346.199 84.4419L329.93 100.616H316.132Z" fill="#C09150"/>
<path fill-rule="evenodd" clip-rule="evenodd" d="M30.9375 42.8243H264.452C281.021 42.8243 294.452 56.2558 294.452 72.8243V96.0592C294.452 112.628 281.021 126.059 264.452 126.059H30.9375C14.3689 126.059 0.93751 112.628 0.93751 96.0592V72.8243C0.93751 56.2558 14.3689 42.8243 30.9375 42.8243Z" fill="#C09150"/>
<path d="M56.2085 105.411C53.9292 105.411 51.8265 104.994 49.9004 104.159C48.0064 103.292 46.4494 102.073 45.2295 100.5L49.5633 95.2991C50.4943 96.5189 51.4734 97.4499 52.5007 98.0919C53.5279 98.7019 54.6355 99.0068 55.8232 99.0068C59.0013 99.0068 60.5904 97.1449 60.5904 93.4211V77.3861H48.7447V71.1262H68.3431V92.9877C68.3431 97.161 67.3158 100.275 65.2613 102.329C63.2067 104.384 60.1891 105.411 56.2085 105.411ZM92.4204 105.411C89.7559 105.411 87.284 104.978 85.0048 104.111C82.7577 103.244 80.7994 102.024 79.1301 100.451C77.4929 98.8784 76.2088 97.0326 75.2779 94.9138C74.379 92.7951 73.9296 90.4837 73.9296 87.9798C73.9296 85.4758 74.379 83.1645 75.2779 81.0457C76.2088 78.927 77.509 77.0811 79.1783 75.5081C80.8476 73.9351 82.8058 72.7152 85.053 71.8485C87.3001 70.9817 89.7399 70.5483 92.3722 70.5483C95.0367 70.5483 97.4765 70.9817 99.6915 71.8485C101.939 72.7152 103.881 73.9351 105.518 75.5081C107.187 77.0811 108.487 78.927 109.418 81.0457C110.349 83.1324 110.815 85.4437 110.815 87.9798C110.815 90.4837 110.349 92.8111 109.418 94.962C108.487 97.0807 107.187 98.9266 105.518 100.5C103.881 102.04 101.939 103.244 99.6915 104.111C97.4765 104.978 95.0528 105.411 92.4204 105.411ZM92.3722 98.7661C93.881 98.7661 95.2614 98.5093 96.5134 97.9956C97.7975 97.482 98.9211 96.7436 99.8841 95.7806C100.847 94.8175 101.586 93.6779 102.099 92.3617C102.645 91.0455 102.918 89.5849 102.918 87.9798C102.918 86.3747 102.645 84.914 102.099 83.5978C101.586 82.2817 100.847 81.142 99.8841 80.179C98.9532 79.2159 97.8456 78.4776 96.5616 77.9639C95.2775 77.4503 93.881 77.1935 92.3722 77.1935C90.8634 77.1935 89.467 77.4503 88.1829 77.9639C86.9309 78.4776 85.8234 79.2159 84.8603 80.179C83.8973 81.142 83.1429 82.2817 82.5971 83.5978C82.0835 84.914 81.8267 86.3747 81.8267 87.9798C81.8267 89.5528 82.0835 91.0134 82.5971 92.3617C83.1429 93.6779 83.8812 94.8175 84.8122 95.7806C85.7753 96.7436 86.8988 97.482 88.1829 97.9956C89.467 98.5093 90.8634 98.7661 92.3722 98.7661ZM116.678 104.833V71.1262H124.478V104.833H116.678ZM132.478 104.833V71.1262H138.93L158.818 95.3954H155.688V71.1262H163.392V104.833H156.988L137.052 80.5642H140.182V104.833H132.478ZM199.98 105.411C195.197 105.411 191.457 104.079 188.76 101.415C186.064 98.75 184.715 94.9459 184.715 90.0022V71.1262H192.516V89.7133C192.516 92.9235 193.174 95.2348 194.49 96.6473C195.807 98.0598 197.652 98.7661 200.028 98.7661C202.404 98.7661 204.249 98.0598 205.566 96.6473C206.882 95.2348 207.54 92.9235 207.54 89.7133V71.1262H215.244V90.0022C215.244 94.9459 213.896 98.75 211.2 101.415C208.503 104.079 204.763 105.411 199.98 105.411ZM234.028 105.411C231.332 105.411 228.747 105.058 226.276 104.352C223.804 103.613 221.813 102.666 220.305 101.511L222.953 95.6361C224.398 96.6634 226.099 97.5141 228.057 98.1882C230.048 98.8303 232.054 99.1513 234.076 99.1513C235.617 99.1513 236.853 99.0068 237.784 98.7179C238.747 98.3969 239.454 97.9635 239.903 97.4178C240.352 96.8721 240.577 96.2461 240.577 95.5398C240.577 94.641 240.224 93.9347 239.518 93.4211C238.811 92.8753 237.881 92.442 236.725 92.1209C235.569 91.7678 234.285 91.4468 232.873 91.1579C231.492 90.8369 230.096 90.4516 228.683 90.0022C227.303 89.5528 226.035 88.9749 224.879 88.2687C223.723 87.5624 222.776 86.6315 222.038 85.4758C221.332 84.3201 220.979 82.8434 220.979 81.0457C220.979 79.1196 221.492 77.37 222.52 75.797C223.579 74.1919 225.152 72.9239 227.239 71.9929C229.357 71.0299 232.006 70.5483 235.184 70.5483C237.303 70.5483 239.389 70.8052 241.444 71.3188C243.498 71.8003 245.312 72.5387 246.885 73.5338L244.477 79.4567C242.904 78.5578 241.331 77.8997 239.758 77.4824C238.185 77.033 236.645 76.8082 235.136 76.8082C233.627 76.8082 232.391 76.9848 231.428 77.3379C230.465 77.6911 229.775 78.1565 229.357 78.7344C228.94 79.2801 228.731 79.9221 228.731 80.6605C228.731 81.5273 229.085 82.2335 229.791 82.7792C230.497 83.2929 231.428 83.7102 232.584 84.0312C233.739 84.3522 235.007 84.6733 236.388 84.9943C237.8 85.3153 239.197 85.6845 240.577 86.1018C241.99 86.5191 243.274 87.0809 244.429 87.7872C245.585 88.4934 246.516 89.4244 247.222 90.58C247.961 91.7357 248.33 93.1964 248.33 94.962C248.33 96.856 247.8 98.5895 246.741 100.163C245.681 101.736 244.092 103.004 241.974 103.967C239.887 104.93 237.238 105.411 234.028 105.411Z" fill="white"/>
</svg>
