<svg width="2000" height="1178" viewBox="0 0 2000 1178" fill="none" xmlns="http://www.w3.org/2000/svg">
<g filter="url(#filter0_d_90_8)">
<path fill-rule="evenodd" clip-rule="evenodd" d="M-53.4537 1093.88H1205.02C1255.92 1093.88 1283.96 1060.08 1267.64 1018.39L901.774 83.494C885.456 41.7993 830.965 7.99936 780.064 7.99936H-54.3048L-53.4537 1093.88Z" fill="black" fill-opacity="0.01"/>
<path fill-rule="evenodd" clip-rule="evenodd" d="M-53.4537 1093.88H1205.02C1255.92 1093.88 1283.96 1060.08 1267.64 1018.39L901.774 83.494C885.456 41.7993 830.965 7.99936 780.064 7.99936H-54.3048L-53.4537 1093.88Z" stroke="white" stroke-width="10"/>
</g>
<g style="mix-blend-mode:multiply">
<path fill-rule="evenodd" clip-rule="evenodd" d="M-8.56873 1178C241.401 1178 1118.26 1178 1118.26 1178C1171.78 1178 1201.25 1142.49 1184.1 1098.67L799.433 116.333C782.279 72.5228 724.988 37.008 671.471 37.008C671.471 37.008 315.58 37.008 -8.20693 37.008L-8.56873 1178Z" fill="#CB9955"/>
</g>
<g filter="url(#filter1_d_90_8)">
<path fill-rule="evenodd" clip-rule="evenodd" d="M2131.45 985C2094.38 985 2054.7 960.379 2042.82 930.008L1776.39 248.992C1764.51 218.621 1784.93 194 1821.99 194H2132.32L2131.45 985Z" fill="black" fill-opacity="0.01"/>
<path fill-rule="evenodd" clip-rule="evenodd" d="M2131.45 985C2094.38 985 2054.7 960.379 2042.82 930.008L1776.39 248.992C1764.51 218.621 1784.93 194 1821.99 194H2132.32L2131.45 985Z" stroke="white" stroke-width="10"/>
</g>
<path d="M127.162 847.026L124.817 856.548L124.254 853.828C125.161 853.828 125.912 854.109 126.506 854.672C127.1 855.235 127.397 855.986 127.397 856.924C127.397 857.862 127.1 858.628 126.506 859.222C125.912 859.817 125.177 860.114 124.301 860.114C123.394 860.114 122.643 859.817 122.049 859.222C121.455 858.597 121.158 857.831 121.158 856.924C121.158 856.611 121.174 856.314 121.205 856.032C121.267 855.751 121.361 855.423 121.486 855.047C121.611 854.641 121.783 854.156 122.002 853.593L124.207 847.026H127.162ZM136.029 847.026L133.683 856.548L133.12 853.828C134.027 853.828 134.778 854.109 135.372 854.672C135.966 855.235 136.263 855.986 136.263 856.924C136.263 857.862 135.966 858.628 135.372 859.222C134.778 859.817 134.043 860.114 133.167 860.114C132.26 860.114 131.51 859.817 130.915 859.222C130.321 858.597 130.024 857.831 130.024 856.924C130.024 856.611 130.04 856.314 130.071 856.032C130.133 855.751 130.227 855.423 130.352 855.047C130.478 854.641 130.65 854.156 130.868 853.593L133.073 847.026H136.029ZM143.441 881.833V848.996H147.288L162.018 873.812H159.954L174.496 848.996H178.343L178.39 881.833H173.886L173.839 856.079H174.918L161.971 877.846H159.813L146.772 856.079H147.945V881.833H143.441ZM203.022 881.833V876.579L202.787 875.594V866.634C202.787 864.727 202.224 863.257 201.098 862.225C200.004 861.161 198.346 860.63 196.126 860.63C194.656 860.63 193.217 860.88 191.81 861.38C190.403 861.849 189.214 862.49 188.245 863.304L186.368 859.926C187.65 858.894 189.183 858.112 190.966 857.581C192.779 857.018 194.671 856.736 196.642 856.736C200.051 856.736 202.678 857.565 204.523 859.222C206.368 860.88 207.29 863.413 207.29 866.822V881.833H203.022ZM194.859 882.115C193.014 882.115 191.388 881.802 189.98 881.177C188.604 880.551 187.541 879.691 186.79 878.597C186.04 877.471 185.665 876.204 185.665 874.797C185.665 873.452 185.977 872.232 186.603 871.138C187.26 870.043 188.307 869.167 189.746 868.511C191.216 867.854 193.186 867.526 195.657 867.526H203.538V870.762H195.844C193.593 870.762 192.076 871.138 191.294 871.888C190.512 872.639 190.121 873.546 190.121 874.609C190.121 875.829 190.606 876.814 191.575 877.564C192.545 878.284 193.89 878.643 195.61 878.643C197.298 878.643 198.768 878.268 200.019 877.518C201.302 876.767 202.224 875.672 202.787 874.234L203.678 877.33C203.084 878.8 202.036 879.973 200.535 880.848C199.034 881.693 197.142 882.115 194.859 882.115ZM215.624 881.833V856.971H219.94V863.726L219.518 862.037C220.206 860.317 221.363 859.003 222.989 858.097C224.616 857.19 226.617 856.736 228.994 856.736V861.099C228.806 861.068 228.619 861.052 228.431 861.052C228.275 861.052 228.118 861.052 227.962 861.052C225.554 861.052 223.646 861.771 222.239 863.21C220.832 864.648 220.128 866.728 220.128 869.449V881.833H215.624ZM238.204 875.829L238.297 870.059L252.605 856.971H258.047L247.07 867.76L244.63 869.824L238.204 875.829ZM234.545 881.833V847.026H239.048V881.833H234.545ZM253.543 881.833L243.786 869.73L246.694 866.118L259.079 881.833H253.543ZM273.515 882.115C270.856 882.115 268.511 881.568 266.478 880.473C264.476 879.378 262.913 877.877 261.787 875.97C260.692 874.062 260.145 871.873 260.145 869.402C260.145 866.931 260.677 864.742 261.74 862.835C262.835 860.927 264.32 859.441 266.196 858.378C268.104 857.283 270.246 856.736 272.623 856.736C275.031 856.736 277.158 857.268 279.003 858.331C280.848 859.394 282.287 860.896 283.319 862.835C284.382 864.742 284.914 866.978 284.914 869.543C284.914 869.73 284.898 869.949 284.867 870.2C284.867 870.45 284.851 870.684 284.82 870.903H263.663V867.666H282.475L280.645 868.792C280.676 867.197 280.348 865.774 279.66 864.523C278.972 863.272 278.018 862.303 276.798 861.615C275.61 860.896 274.218 860.536 272.623 860.536C271.06 860.536 269.668 860.896 268.448 861.615C267.229 862.303 266.275 863.288 265.587 864.57C264.899 865.821 264.555 867.26 264.555 868.886V869.637C264.555 871.294 264.93 872.78 265.68 874.093C266.462 875.375 267.541 876.376 268.917 877.095C270.293 877.815 271.873 878.174 273.655 878.174C275.125 878.174 276.454 877.924 277.643 877.424C278.862 876.923 279.926 876.173 280.833 875.172L283.319 878.081C282.193 879.394 280.786 880.395 279.097 881.083C277.439 881.771 275.579 882.115 273.515 882.115ZM299.705 882.115C297.203 882.115 295.264 881.442 293.888 880.098C292.512 878.753 291.824 876.83 291.824 874.328V851.529H296.327V874.14C296.327 875.485 296.656 876.517 297.313 877.236C298.001 877.955 298.97 878.315 300.221 878.315C301.628 878.315 302.801 877.924 303.739 877.142L305.147 880.379C304.459 880.973 303.63 881.411 302.66 881.693C301.722 881.974 300.737 882.115 299.705 882.115ZM287.602 860.677V856.971H303.458V860.677H287.602ZM310.591 881.833V856.971H315.095V881.833H310.591ZM312.843 852.186C311.967 852.186 311.232 851.904 310.638 851.341C310.075 850.778 309.794 850.09 309.794 849.277C309.794 848.433 310.075 847.729 310.638 847.166C311.232 846.603 311.967 846.322 312.843 846.322C313.719 846.322 314.438 846.603 315.001 847.166C315.595 847.698 315.892 848.37 315.892 849.183C315.892 850.028 315.611 850.747 315.048 851.341C314.485 851.904 313.75 852.186 312.843 852.186ZM336.969 856.736C339.002 856.736 340.784 857.127 342.317 857.909C343.881 858.691 345.1 859.879 345.976 861.474C346.852 863.069 347.289 865.086 347.289 867.526V881.833H342.786V868.042C342.786 865.634 342.192 863.82 341.003 862.6C339.846 861.38 338.204 860.77 336.078 860.77C334.483 860.77 333.091 861.083 331.903 861.709C330.714 862.334 329.792 863.257 329.135 864.476C328.509 865.696 328.197 867.213 328.197 869.027V881.833H323.693V856.971H328.009V863.679L327.305 861.896C328.119 860.27 329.37 859.003 331.058 858.097C332.747 857.19 334.717 856.736 336.969 856.736ZM366.507 891.216C364.224 891.216 362.004 890.887 359.846 890.23C357.719 889.605 355.983 888.698 354.639 887.51L356.797 884.038C357.954 885.039 359.377 885.821 361.065 886.384C362.754 886.978 364.521 887.275 366.366 887.275C369.306 887.275 371.464 886.587 372.84 885.211C374.216 883.835 374.904 881.74 374.904 878.925V873.671L375.373 868.745L375.139 863.773V856.971H379.408V878.456C379.408 882.834 378.313 886.055 376.124 888.119C373.935 890.183 370.729 891.216 366.507 891.216ZM365.944 880.801C363.536 880.801 361.378 880.301 359.47 879.3C357.594 878.268 356.093 876.845 354.967 875.031C353.872 873.217 353.325 871.122 353.325 868.745C353.325 866.337 353.872 864.242 354.967 862.459C356.093 860.645 357.594 859.238 359.47 858.237C361.378 857.236 363.536 856.736 365.944 856.736C368.071 856.736 370.01 857.174 371.761 858.05C373.512 858.894 374.904 860.208 375.936 861.99C376.999 863.773 377.531 866.024 377.531 868.745C377.531 871.435 376.999 873.671 375.936 875.454C374.904 877.236 373.512 878.581 371.761 879.488C370.01 880.364 368.071 880.801 365.944 880.801ZM366.46 876.861C368.118 876.861 369.588 876.517 370.87 875.829C372.152 875.141 373.153 874.187 373.872 872.967C374.623 871.748 374.998 870.34 374.998 868.745C374.998 867.15 374.623 865.743 373.872 864.523C373.153 863.304 372.152 862.365 370.87 861.709C369.588 861.021 368.118 860.677 366.46 860.677C364.803 860.677 363.317 861.021 362.004 861.709C360.721 862.365 359.705 863.304 358.954 864.523C358.235 865.743 357.876 867.15 357.876 868.745C357.876 870.34 358.235 871.748 358.954 872.967C359.705 874.187 360.721 875.141 362.004 875.829C363.317 876.517 364.803 876.861 366.46 876.861ZM409.946 882.209C407.725 882.209 405.755 881.849 404.035 881.13C402.315 880.41 400.955 879.41 399.954 878.127C398.953 876.845 398.453 875.36 398.453 873.671C398.453 872.201 398.781 870.856 399.438 869.637C400.094 868.417 401.142 867.244 402.581 866.118C404.019 864.961 405.911 863.773 408.257 862.553C410.165 861.552 411.65 860.677 412.713 859.926C413.808 859.175 414.574 858.472 415.012 857.815C415.481 857.127 415.716 856.392 415.716 855.61C415.716 854.547 415.34 853.687 414.59 853.03C413.839 852.342 412.76 851.998 411.353 851.998C409.883 851.998 408.726 852.373 407.882 853.124C407.069 853.843 406.662 854.797 406.662 855.986C406.662 856.58 406.756 857.158 406.943 857.721C407.162 858.253 407.538 858.863 408.069 859.551C408.632 860.208 409.43 861.052 410.462 862.084L427.819 879.347L425.286 882.349L406.85 864.007C405.755 862.913 404.895 861.943 404.27 861.099C403.644 860.223 403.191 859.379 402.909 858.566C402.628 857.753 402.487 856.924 402.487 856.079C402.487 854.609 402.847 853.327 403.566 852.233C404.316 851.107 405.348 850.247 406.662 849.653C408.007 849.027 409.57 848.714 411.353 848.714C413.011 848.714 414.449 848.996 415.669 849.559C416.889 850.09 417.827 850.872 418.484 851.904C419.172 852.905 419.516 854.125 419.516 855.563C419.516 856.814 419.203 857.971 418.577 859.035C417.983 860.098 417.014 861.13 415.669 862.131C414.324 863.132 412.51 864.211 410.227 865.368C408.351 866.337 406.881 867.244 405.818 868.089C404.754 868.902 403.988 869.715 403.519 870.528C403.081 871.341 402.862 872.232 402.862 873.202C402.862 874.234 403.159 875.156 403.754 875.97C404.379 876.751 405.239 877.361 406.334 877.799C407.459 878.237 408.757 878.456 410.227 878.456C412.323 878.456 414.215 878.002 415.903 877.095C417.592 876.188 419 874.828 420.125 873.014C421.283 871.2 422.127 868.949 422.659 866.259L426.271 867.432C425.645 870.59 424.566 873.264 423.034 875.454C421.533 877.643 419.672 879.316 417.451 880.473C415.231 881.63 412.729 882.209 409.946 882.209ZM455.595 882.209C453.093 882.209 450.7 881.833 448.417 881.083C446.134 880.301 444.336 879.3 443.023 878.081L444.758 874.421C446.009 875.516 447.604 876.423 449.543 877.142C451.482 877.862 453.499 878.221 455.595 878.221C457.502 878.221 459.05 878.002 460.239 877.564C461.427 877.127 462.303 876.532 462.866 875.782C463.429 875 463.71 874.124 463.71 873.155C463.71 872.029 463.335 871.122 462.584 870.434C461.865 869.746 460.911 869.199 459.723 868.792C458.566 868.354 457.283 867.979 455.876 867.666C454.469 867.354 453.046 866.994 451.607 866.587C450.2 866.15 448.902 865.602 447.714 864.945C446.557 864.289 445.618 863.413 444.899 862.318C444.18 861.193 443.82 859.754 443.82 858.003C443.82 856.314 444.258 854.766 445.134 853.359C446.041 851.92 447.417 850.778 449.262 849.934C451.138 849.058 453.515 848.621 456.392 848.621C458.3 848.621 460.192 848.871 462.068 849.371C463.945 849.872 465.571 850.591 466.947 851.529L465.399 855.282C463.992 854.344 462.506 853.671 460.943 853.265C459.379 852.827 457.862 852.608 456.392 852.608C454.547 852.608 453.03 852.843 451.842 853.312C450.653 853.781 449.778 854.406 449.215 855.188C448.683 855.97 448.417 856.846 448.417 857.815C448.417 858.972 448.777 859.895 449.496 860.583C450.247 861.271 451.201 861.818 452.358 862.225C453.546 862.631 454.844 863.007 456.251 863.351C457.659 863.663 459.066 864.023 460.473 864.429C461.912 864.836 463.21 865.368 464.367 866.024C465.555 866.681 466.509 867.557 467.229 868.651C467.948 869.746 468.307 871.153 468.307 872.873C468.307 874.531 467.854 876.079 466.947 877.518C466.04 878.925 464.633 880.066 462.725 880.942C460.849 881.786 458.472 882.209 455.595 882.209ZM489.938 881.833V876.579L489.703 875.594V866.634C489.703 864.727 489.14 863.257 488.014 862.225C486.92 861.161 485.262 860.63 483.042 860.63C481.572 860.63 480.133 860.88 478.726 861.38C477.319 861.849 476.13 862.49 475.161 863.304L473.284 859.926C474.567 858.894 476.099 858.112 477.882 857.581C479.696 857.018 481.588 856.736 483.558 856.736C486.967 856.736 489.594 857.565 491.439 859.222C493.284 860.88 494.207 863.413 494.207 866.822V881.833H489.938ZM481.775 882.115C479.93 882.115 478.304 881.802 476.897 881.177C475.521 880.551 474.457 879.691 473.707 878.597C472.956 877.471 472.581 876.204 472.581 874.797C472.581 873.452 472.894 872.232 473.519 871.138C474.176 870.043 475.223 869.167 476.662 868.511C478.132 867.854 480.102 867.526 482.573 867.526H490.454V870.762H482.76C480.509 870.762 478.992 871.138 478.21 871.888C477.428 872.639 477.037 873.546 477.037 874.609C477.037 875.829 477.522 876.814 478.492 877.564C479.461 878.284 480.806 878.643 482.526 878.643C484.215 878.643 485.685 878.268 486.935 877.518C488.218 876.767 489.14 875.672 489.703 874.234L490.595 877.33C490 878.8 488.953 879.973 487.451 880.848C485.95 881.693 484.058 882.115 481.775 882.115ZM502.541 881.833V847.026H507.044V881.833H502.541ZM526.714 882.115C524.055 882.115 521.71 881.568 519.677 880.473C517.675 879.378 516.112 877.877 514.986 875.97C513.891 874.062 513.344 871.873 513.344 869.402C513.344 866.931 513.876 864.742 514.939 862.835C516.034 860.927 517.519 859.441 519.396 858.378C521.303 857.283 523.445 856.736 525.822 856.736C528.23 856.736 530.357 857.268 532.202 858.331C534.047 859.394 535.486 860.896 536.518 862.835C537.581 864.742 538.113 866.978 538.113 869.543C538.113 869.73 538.097 869.949 538.066 870.2C538.066 870.45 538.05 870.684 538.019 870.903H516.862V867.666H535.674L533.844 868.792C533.875 867.197 533.547 865.774 532.859 864.523C532.171 863.272 531.217 862.303 529.997 861.615C528.809 860.896 527.417 860.536 525.822 860.536C524.259 860.536 522.867 860.896 521.647 861.615C520.428 862.303 519.474 863.288 518.786 864.57C518.098 865.821 517.754 867.26 517.754 868.886V869.637C517.754 871.294 518.129 872.78 518.88 874.093C519.661 875.375 520.74 876.376 522.116 877.095C523.492 877.815 525.072 878.174 526.854 878.174C528.324 878.174 529.653 877.924 530.842 877.424C532.061 876.923 533.125 876.173 534.032 875.172L536.518 878.081C535.392 879.394 533.985 880.395 532.296 881.083C530.638 881.771 528.778 882.115 526.714 882.115ZM551.497 882.115C549.433 882.115 547.462 881.833 545.586 881.27C543.741 880.708 542.287 880.019 541.223 879.206L543.1 875.641C544.163 876.36 545.477 876.97 547.04 877.471C548.604 877.971 550.199 878.221 551.825 878.221C553.921 878.221 555.422 877.924 556.329 877.33C557.267 876.736 557.736 875.907 557.736 874.844C557.736 874.062 557.454 873.452 556.892 873.014C556.329 872.576 555.578 872.248 554.64 872.029C553.733 871.81 552.716 871.622 551.591 871.466C550.465 871.278 549.339 871.06 548.213 870.809C547.087 870.528 546.055 870.153 545.117 869.683C544.179 869.183 543.428 868.511 542.865 867.666C542.302 866.791 542.021 865.634 542.021 864.195C542.021 862.694 542.443 861.38 543.287 860.254C544.132 859.129 545.32 858.269 546.853 857.674C548.416 857.049 550.261 856.736 552.388 856.736C554.014 856.736 555.656 856.939 557.314 857.346C559.003 857.721 560.379 858.269 561.442 858.988L559.519 862.553C558.393 861.802 557.22 861.286 556 861.005C554.781 860.724 553.561 860.583 552.341 860.583C550.371 860.583 548.901 860.911 547.932 861.568C546.962 862.193 546.477 863.007 546.477 864.007C546.477 864.852 546.759 865.508 547.322 865.978C547.916 866.415 548.667 866.759 549.573 867.01C550.512 867.26 551.544 867.479 552.67 867.666C553.795 867.823 554.921 868.042 556.047 868.323C557.173 868.573 558.189 868.933 559.096 869.402C560.035 869.871 560.785 870.528 561.348 871.372C561.942 872.217 562.239 873.343 562.239 874.75C562.239 876.251 561.802 877.549 560.926 878.643C560.05 879.738 558.815 880.598 557.22 881.224C555.625 881.818 553.717 882.115 551.497 882.115ZM590.692 882.209C588.19 882.209 585.798 881.833 583.515 881.083C581.232 880.301 579.434 879.3 578.12 878.081L579.856 874.421C581.107 875.516 582.702 876.423 584.641 877.142C586.58 877.862 588.597 878.221 590.692 878.221C592.6 878.221 594.148 878.002 595.336 877.564C596.525 877.127 597.4 876.532 597.963 875.782C598.526 875 598.808 874.124 598.808 873.155C598.808 872.029 598.432 871.122 597.682 870.434C596.963 869.746 596.009 869.199 594.82 868.792C593.663 868.354 592.381 867.979 590.974 867.666C589.566 867.354 588.143 866.994 586.705 866.587C585.297 866.15 584 865.602 582.811 864.945C581.654 864.289 580.716 863.413 579.997 862.318C579.277 861.193 578.918 859.754 578.918 858.003C578.918 856.314 579.355 854.766 580.231 853.359C581.138 851.92 582.514 850.778 584.359 849.934C586.236 849.058 588.613 848.621 591.49 848.621C593.397 848.621 595.289 848.871 597.166 849.371C599.042 849.872 600.669 850.591 602.045 851.529L600.497 855.282C599.089 854.344 597.604 853.671 596.04 853.265C594.476 852.827 592.96 852.608 591.49 852.608C589.645 852.608 588.128 852.843 586.939 853.312C585.751 853.781 584.875 854.406 584.312 855.188C583.781 855.97 583.515 856.846 583.515 857.815C583.515 858.972 583.875 859.895 584.594 860.583C585.344 861.271 586.298 861.818 587.455 862.225C588.644 862.631 589.942 863.007 591.349 863.351C592.756 863.663 594.164 864.023 595.571 864.429C597.01 864.836 598.307 865.368 599.465 866.024C600.653 866.681 601.607 867.557 602.326 868.651C603.045 869.746 603.405 871.153 603.405 872.873C603.405 874.531 602.952 876.079 602.045 877.518C601.138 878.925 599.73 880.066 597.823 880.942C595.946 881.786 593.569 882.209 590.692 882.209ZM620.25 882.115C617.748 882.115 615.528 881.568 613.589 880.473C611.65 879.378 610.118 877.877 608.992 875.97C607.866 874.031 607.303 871.841 607.303 869.402C607.303 866.931 607.866 864.742 608.992 862.835C610.118 860.927 611.65 859.441 613.589 858.378C615.528 857.283 617.748 856.736 620.25 856.736C622.721 856.736 624.926 857.283 626.865 858.378C628.835 859.441 630.367 860.927 631.462 862.835C632.588 864.711 633.151 866.9 633.151 869.402C633.151 871.873 632.588 874.062 631.462 875.97C630.367 877.877 628.835 879.378 626.865 880.473C624.926 881.568 622.721 882.115 620.25 882.115ZM620.25 878.174C621.845 878.174 623.268 877.815 624.519 877.095C625.802 876.376 626.802 875.36 627.522 874.046C628.241 872.701 628.601 871.153 628.601 869.402C628.601 867.619 628.241 866.087 627.522 864.805C626.802 863.491 625.802 862.475 624.519 861.756C623.268 861.036 621.845 860.677 620.25 860.677C618.655 860.677 617.232 861.036 615.982 861.756C614.731 862.475 613.73 863.491 612.979 864.805C612.229 866.087 611.853 867.619 611.853 869.402C611.853 871.153 612.229 872.701 612.979 874.046C613.73 875.36 614.731 876.376 615.982 877.095C617.232 877.815 618.655 878.174 620.25 878.174ZM639.379 881.833V847.026H643.882V881.833H639.379ZM662.942 882.115C660.815 882.115 658.939 881.724 657.313 880.942C655.718 880.16 654.467 878.972 653.56 877.377C652.684 875.751 652.246 873.718 652.246 871.278V856.971H656.75V870.762C656.75 873.202 657.328 875.031 658.486 876.251C659.674 877.471 661.331 878.081 663.458 878.081C665.022 878.081 666.382 877.768 667.539 877.142C668.696 876.486 669.588 875.547 670.213 874.328C670.839 873.077 671.151 871.576 671.151 869.824V856.971H675.655V881.833H671.386V875.125L672.09 876.908C671.277 878.565 670.057 879.847 668.431 880.754C666.804 881.661 664.975 882.115 662.942 882.115ZM692.766 882.115C690.264 882.115 688.325 881.442 686.949 880.098C685.573 878.753 684.885 876.83 684.885 874.328V851.529H689.388V874.14C689.388 875.485 689.717 876.517 690.374 877.236C691.062 877.955 692.031 878.315 693.282 878.315C694.689 878.315 695.862 877.924 696.8 877.142L698.208 880.379C697.52 880.973 696.691 881.411 695.721 881.693C694.783 881.974 693.798 882.115 692.766 882.115ZM680.663 860.677V856.971H696.519V860.677H680.663ZM703.652 881.833V856.971H708.156V881.833H703.652ZM705.904 852.186C705.028 852.186 704.293 851.904 703.699 851.341C703.136 850.778 702.855 850.09 702.855 849.277C702.855 848.433 703.136 847.729 703.699 847.166C704.293 846.603 705.028 846.322 705.904 846.322C706.78 846.322 707.499 846.603 708.062 847.166C708.656 847.698 708.953 848.37 708.953 849.183C708.953 850.028 708.672 850.747 708.109 851.341C707.546 851.904 706.811 852.186 705.904 852.186ZM727.403 882.115C724.901 882.115 722.681 881.568 720.742 880.473C718.803 879.378 717.27 877.877 716.144 875.97C715.019 874.031 714.456 871.841 714.456 869.402C714.456 866.931 715.019 864.742 716.144 862.835C717.27 860.927 718.803 859.441 720.742 858.378C722.681 857.283 724.901 856.736 727.403 856.736C729.874 856.736 732.078 857.283 734.017 858.378C735.988 859.441 737.52 860.927 738.615 862.835C739.741 864.711 740.303 866.9 740.303 869.402C740.303 871.873 739.741 874.062 738.615 875.97C737.52 877.877 735.988 879.378 734.017 880.473C732.078 881.568 729.874 882.115 727.403 882.115ZM727.403 878.174C728.998 878.174 730.421 877.815 731.672 877.095C732.954 876.376 733.955 875.36 734.674 874.046C735.393 872.701 735.753 871.153 735.753 869.402C735.753 867.619 735.393 866.087 734.674 864.805C733.955 863.491 732.954 862.475 731.672 861.756C730.421 861.036 728.998 860.677 727.403 860.677C725.808 860.677 724.385 861.036 723.134 861.756C721.883 862.475 720.882 863.491 720.132 864.805C719.381 866.087 719.006 867.619 719.006 869.402C719.006 871.153 719.381 872.701 720.132 874.046C720.882 875.36 721.883 876.376 723.134 877.095C724.385 877.815 725.808 878.174 727.403 878.174ZM759.807 856.736C761.84 856.736 763.623 857.127 765.155 857.909C766.719 858.691 767.939 859.879 768.814 861.474C769.69 863.069 770.128 865.086 770.128 867.526V881.833H765.624V868.042C765.624 865.634 765.03 863.82 763.842 862.6C762.685 861.38 761.043 860.77 758.916 860.77C757.321 860.77 755.929 861.083 754.741 861.709C753.553 862.334 752.63 863.257 751.973 864.476C751.348 865.696 751.035 867.213 751.035 869.027V881.833H746.532V856.971H750.847V863.679L750.144 861.896C750.957 860.27 752.208 859.003 753.897 858.097C755.585 857.19 757.556 856.736 759.807 856.736ZM785.593 882.115C783.528 882.115 781.558 881.833 779.682 881.27C777.837 880.708 776.382 880.019 775.319 879.206L777.195 875.641C778.259 876.36 779.572 876.97 781.136 877.471C782.7 877.971 784.295 878.221 785.921 878.221C788.016 878.221 789.517 877.924 790.424 877.33C791.363 876.736 791.832 875.907 791.832 874.844C791.832 874.062 791.55 873.452 790.987 873.014C790.424 872.576 789.674 872.248 788.736 872.029C787.829 871.81 786.812 871.622 785.686 871.466C784.56 871.278 783.435 871.06 782.309 870.809C781.183 870.528 780.151 870.153 779.213 869.683C778.274 869.183 777.524 868.511 776.961 867.666C776.398 866.791 776.117 865.634 776.117 864.195C776.117 862.694 776.539 861.38 777.383 860.254C778.228 859.129 779.416 858.269 780.948 857.674C782.512 857.049 784.357 856.736 786.484 856.736C788.11 856.736 789.752 856.939 791.409 857.346C793.098 857.721 794.474 858.269 795.538 858.988L793.614 862.553C792.488 861.802 791.316 861.286 790.096 861.005C788.876 860.724 787.657 860.583 786.437 860.583C784.467 860.583 782.997 860.911 782.027 861.568C781.058 862.193 780.573 863.007 780.573 864.007C780.573 864.852 780.855 865.508 781.417 865.978C782.012 866.415 782.762 866.759 783.669 867.01C784.607 867.26 785.639 867.479 786.765 867.666C787.891 867.823 789.017 868.042 790.143 868.323C791.269 868.573 792.285 868.933 793.192 869.402C794.13 869.871 794.881 870.528 795.444 871.372C796.038 872.217 796.335 873.343 796.335 874.75C796.335 876.251 795.897 877.549 795.022 878.643C794.146 879.738 792.911 880.598 791.316 881.224C789.721 881.818 787.813 882.115 785.593 882.115ZM130.446 936.833V908.077H119.188V903.996H146.349V908.077H135.09V936.833H130.446ZM158.885 937.115C156.383 937.115 154.162 936.568 152.223 935.473C150.284 934.378 148.752 932.877 147.626 930.97C146.5 929.031 145.937 926.841 145.937 924.402C145.937 921.931 146.5 919.742 147.626 917.835C148.752 915.927 150.284 914.441 152.223 913.378C154.162 912.283 156.383 911.736 158.885 911.736C161.355 911.736 163.56 912.283 165.499 913.378C167.469 914.441 169.002 915.927 170.096 917.835C171.222 919.711 171.785 921.9 171.785 924.402C171.785 926.873 171.222 929.062 170.096 930.97C169.002 932.877 167.469 934.378 165.499 935.473C163.56 936.568 161.355 937.115 158.885 937.115ZM158.885 933.174C160.48 933.174 161.903 932.815 163.154 932.095C164.436 931.376 165.437 930.36 166.156 929.046C166.875 927.701 167.235 926.153 167.235 924.402C167.235 922.619 166.875 921.087 166.156 919.805C165.437 918.491 164.436 917.475 163.154 916.756C161.903 916.036 160.48 915.677 158.885 915.677C157.29 915.677 155.867 916.036 154.616 916.756C153.365 917.475 152.364 918.491 151.614 919.805C150.863 921.087 150.488 922.619 150.488 924.402C150.488 926.153 150.863 927.701 151.614 929.046C152.364 930.36 153.365 931.376 154.616 932.095C155.867 932.815 157.29 933.174 158.885 933.174Z" fill="white"/>
<path d="M206.092 937.209C203.559 937.209 201.229 936.802 199.102 935.989C196.976 935.145 195.131 933.972 193.567 932.471C192.003 930.938 190.783 929.156 189.908 927.123C189.032 925.09 188.594 922.854 188.594 920.415C188.594 917.975 189.032 915.739 189.908 913.706C190.783 911.674 192.003 909.907 193.567 908.405C195.162 906.873 197.023 905.7 199.149 904.887C201.276 904.043 203.621 903.621 206.186 903.621C208.782 903.621 211.158 904.043 213.316 904.887C215.474 905.732 217.304 906.998 218.805 908.687L215.896 911.595C214.552 910.282 213.082 909.328 211.487 908.734C209.923 908.108 208.219 907.796 206.374 907.796C204.497 907.796 202.746 908.108 201.12 908.734C199.525 909.359 198.133 910.235 196.944 911.361C195.787 912.487 194.88 913.831 194.224 915.395C193.598 916.928 193.285 918.601 193.285 920.415C193.285 922.197 193.598 923.87 194.224 925.434C194.88 926.966 195.787 928.311 196.944 929.468C198.133 930.594 199.525 931.47 201.12 932.095C202.714 932.721 204.45 933.034 206.327 933.034C208.078 933.034 209.751 932.768 211.346 932.236C212.972 931.673 214.473 930.751 215.849 929.468L218.523 933.034C216.897 934.41 214.989 935.457 212.8 936.177C210.642 936.865 208.406 937.209 206.092 937.209ZM214.02 932.424V920.227H218.523V933.034L214.02 932.424ZM226.848 936.833V911.971H231.164V918.726L230.742 917.037C231.43 915.317 232.587 914.003 234.213 913.097C235.839 912.19 237.841 911.736 240.218 911.736V916.099C240.03 916.068 239.843 916.052 239.655 916.052C239.499 916.052 239.342 916.052 239.186 916.052C236.778 916.052 234.87 916.771 233.463 918.21C232.055 919.648 231.352 921.728 231.352 924.449V936.833H226.848ZM256.188 937.115C253.686 937.115 251.466 936.568 249.527 935.473C247.588 934.378 246.055 932.877 244.929 930.97C243.804 929.031 243.241 926.841 243.241 924.402C243.241 921.931 243.804 919.742 244.929 917.835C246.055 915.927 247.588 914.441 249.527 913.378C251.466 912.283 253.686 911.736 256.188 911.736C258.659 911.736 260.863 912.283 262.802 913.378C264.773 914.441 266.305 915.927 267.4 917.835C268.526 919.711 269.088 921.9 269.088 924.402C269.088 926.873 268.526 929.062 267.4 930.97C266.305 932.877 264.773 934.378 262.802 935.473C260.863 936.568 258.659 937.115 256.188 937.115ZM256.188 933.174C257.783 933.174 259.206 932.815 260.457 932.095C261.739 931.376 262.74 930.36 263.459 929.046C264.178 927.701 264.538 926.153 264.538 924.402C264.538 922.619 264.178 921.087 263.459 919.805C262.74 918.491 261.739 917.475 260.457 916.756C259.206 916.036 257.783 915.677 256.188 915.677C254.593 915.677 253.17 916.036 251.919 916.756C250.668 917.475 249.667 918.491 248.917 919.805C248.166 921.087 247.791 922.619 247.791 924.402C247.791 926.153 248.166 927.701 248.917 929.046C249.667 930.36 250.668 931.376 251.919 932.095C253.17 932.815 254.593 933.174 256.188 933.174ZM279.883 936.833L270.642 911.971H274.911L283.12 934.488H281.103L289.641 911.971H293.441L301.791 934.488H299.821L308.218 911.971H312.252L302.964 936.833H298.648L290.814 916.286H292.127L284.199 936.833H279.883ZM338.004 936.833V924.261L339.083 927.17L324.963 903.996H329.983L341.851 923.558H339.13L351.046 903.996H355.69L341.617 927.17L342.649 924.261V936.833H338.004ZM367.647 937.115C365.145 937.115 362.925 936.568 360.986 935.473C359.047 934.378 357.514 932.877 356.388 930.97C355.262 929.031 354.7 926.841 354.7 924.402C354.7 921.931 355.262 919.742 356.388 917.835C357.514 915.927 359.047 914.441 360.986 913.378C362.925 912.283 365.145 911.736 367.647 911.736C370.118 911.736 372.322 912.283 374.261 913.378C376.232 914.441 377.764 915.927 378.859 917.835C379.984 919.711 380.547 921.9 380.547 924.402C380.547 926.873 379.984 929.062 378.859 930.97C377.764 932.877 376.232 934.378 374.261 935.473C372.322 936.568 370.118 937.115 367.647 937.115ZM367.647 933.174C369.242 933.174 370.665 932.815 371.916 932.095C373.198 931.376 374.199 930.36 374.918 929.046C375.637 927.701 375.997 926.153 375.997 924.402C375.997 922.619 375.637 921.087 374.918 919.805C374.199 918.491 373.198 917.475 371.916 916.756C370.665 916.036 369.242 915.677 367.647 915.677C366.052 915.677 364.629 916.036 363.378 916.756C362.127 917.475 361.126 918.491 360.376 919.805C359.625 921.087 359.25 922.619 359.25 924.402C359.25 926.153 359.625 927.701 360.376 929.046C361.126 930.36 362.127 931.376 363.378 932.095C364.629 932.815 366.052 933.174 367.647 933.174ZM397.237 937.115C395.11 937.115 393.234 936.724 391.607 935.942C390.012 935.16 388.761 933.972 387.854 932.377C386.979 930.751 386.541 928.718 386.541 926.278V911.971H391.044V925.762C391.044 928.202 391.623 930.031 392.78 931.251C393.968 932.471 395.626 933.081 397.753 933.081C399.316 933.081 400.677 932.768 401.834 932.142C402.991 931.486 403.882 930.547 404.508 929.328C405.133 928.077 405.446 926.576 405.446 924.824V911.971H409.949V936.833H405.681V930.125L406.384 931.908C405.571 933.565 404.351 934.847 402.725 935.754C401.099 936.661 399.269 937.115 397.237 937.115ZM418.523 936.833V911.971H422.838V918.726L422.416 917.037C423.104 915.317 424.261 914.003 425.888 913.097C427.514 912.19 429.515 911.736 431.892 911.736V916.099C431.705 916.068 431.517 916.052 431.329 916.052C431.173 916.052 431.017 916.052 430.86 916.052C428.452 916.052 426.544 916.771 425.137 918.21C423.73 919.648 423.026 921.728 423.026 924.449V936.833H418.523ZM451.018 936.833V903.996H465.748C469.532 903.996 472.441 904.762 474.474 906.294C476.507 907.796 477.523 909.86 477.523 912.487C477.523 914.269 477.116 915.77 476.303 916.99C475.521 918.21 474.458 919.148 473.113 919.805C471.769 920.462 470.314 920.79 468.751 920.79L469.595 919.383C471.471 919.383 473.129 919.711 474.568 920.368C476.006 921.024 477.148 921.994 477.992 923.276C478.836 924.527 479.259 926.091 479.259 927.967C479.259 930.782 478.195 932.971 476.069 934.535C473.973 936.067 470.846 936.833 466.687 936.833H451.018ZM455.709 933.034H466.499C469.095 933.034 471.08 932.596 472.457 931.72C473.833 930.844 474.521 929.468 474.521 927.592C474.521 925.684 473.833 924.293 472.457 923.417C471.08 922.541 469.095 922.103 466.499 922.103H455.287V918.304H465.326C467.703 918.304 469.548 917.866 470.862 916.99C472.175 916.114 472.832 914.801 472.832 913.05C472.832 911.298 472.175 909.985 470.862 909.109C469.548 908.233 467.703 907.796 465.326 907.796H455.709V933.034ZM496.326 937.115C494.2 937.115 492.323 936.724 490.697 935.942C489.102 935.16 487.851 933.972 486.944 932.377C486.069 930.751 485.631 928.718 485.631 926.278V911.971H490.134V925.762C490.134 928.202 490.713 930.031 491.87 931.251C493.058 932.471 494.716 933.081 496.842 933.081C498.406 933.081 499.767 932.768 500.924 932.142C502.081 931.486 502.972 930.547 503.598 929.328C504.223 928.077 504.536 926.576 504.536 924.824V911.971H509.039V936.833H504.77V930.125L505.474 931.908C504.661 933.565 503.441 934.847 501.815 935.754C500.189 936.661 498.359 937.115 496.326 937.115ZM524.743 937.115C522.679 937.115 520.709 936.833 518.832 936.27C516.987 935.708 515.533 935.019 514.47 934.206L516.346 930.641C517.409 931.36 518.723 931.97 520.286 932.471C521.85 932.971 523.445 933.221 525.071 933.221C527.167 933.221 528.668 932.924 529.575 932.33C530.513 931.736 530.982 930.907 530.982 929.844C530.982 929.062 530.701 928.452 530.138 928.014C529.575 927.576 528.824 927.248 527.886 927.029C526.979 926.81 525.963 926.622 524.837 926.466C523.711 926.278 522.585 926.06 521.459 925.809C520.333 925.528 519.301 925.153 518.363 924.683C517.425 924.183 516.674 923.511 516.111 922.666C515.548 921.791 515.267 920.634 515.267 919.195C515.267 917.694 515.689 916.38 516.534 915.254C517.378 914.129 518.566 913.269 520.099 912.674C521.663 912.049 523.508 911.736 525.634 911.736C527.261 911.736 528.902 911.939 530.56 912.346C532.249 912.721 533.625 913.269 534.688 913.988L532.765 917.553C531.639 916.802 530.466 916.286 529.246 916.005C528.027 915.724 526.807 915.583 525.587 915.583C523.617 915.583 522.147 915.911 521.178 916.568C520.208 917.193 519.724 918.007 519.724 919.007C519.724 919.852 520.005 920.508 520.568 920.978C521.162 921.415 521.913 921.759 522.82 922.01C523.758 922.26 524.79 922.479 525.916 922.666C527.042 922.823 528.167 923.042 529.293 923.323C530.419 923.573 531.436 923.933 532.343 924.402C533.281 924.871 534.031 925.528 534.594 926.372C535.188 927.217 535.486 928.343 535.486 929.75C535.486 931.251 535.048 932.549 534.172 933.643C533.296 934.738 532.061 935.598 530.466 936.224C528.871 936.818 526.963 937.115 524.743 937.115ZM541.114 936.833V911.971H545.617V936.833H541.114ZM543.365 907.186C542.49 907.186 541.755 906.904 541.161 906.341C540.598 905.778 540.316 905.09 540.316 904.277C540.316 903.433 540.598 902.729 541.161 902.166C541.755 901.603 542.49 901.322 543.365 901.322C544.241 901.322 544.96 901.603 545.523 902.166C546.118 902.698 546.415 903.37 546.415 904.183C546.415 905.028 546.133 905.747 545.57 906.341C545.007 906.904 544.272 907.186 543.365 907.186ZM567.492 911.736C569.524 911.736 571.307 912.127 572.839 912.909C574.403 913.691 575.623 914.879 576.498 916.474C577.374 918.069 577.812 920.086 577.812 922.526V936.833H573.308V923.042C573.308 920.634 572.714 918.82 571.526 917.6C570.369 916.38 568.727 915.77 566.6 915.77C565.005 915.77 563.614 916.083 562.425 916.709C561.237 917.334 560.314 918.257 559.657 919.476C559.032 920.696 558.719 922.213 558.719 924.027V936.833H554.216V911.971H558.532V918.679L557.828 916.896C558.641 915.27 559.892 914.003 561.581 913.097C563.27 912.19 565.24 911.736 567.492 911.736ZM597.217 937.115C594.559 937.115 592.213 936.568 590.181 935.473C588.179 934.378 586.615 932.877 585.489 930.97C584.395 929.062 583.848 926.873 583.848 924.402C583.848 921.931 584.379 919.742 585.443 917.835C586.537 915.927 588.023 914.441 589.899 913.378C591.807 912.283 593.949 911.736 596.326 911.736C598.734 911.736 600.861 912.268 602.706 913.331C604.551 914.394 605.989 915.896 607.022 917.835C608.085 919.742 608.616 921.978 608.616 924.543C608.616 924.73 608.601 924.949 608.57 925.2C608.57 925.45 608.554 925.684 608.523 925.903H587.366V922.666H606.177L604.348 923.792C604.379 922.197 604.051 920.774 603.362 919.523C602.674 918.272 601.721 917.303 600.501 916.615C599.313 915.896 597.921 915.536 596.326 915.536C594.762 915.536 593.37 915.896 592.151 916.615C590.931 917.303 589.977 918.288 589.289 919.57C588.601 920.821 588.257 922.26 588.257 923.886V924.637C588.257 926.294 588.633 927.78 589.383 929.093C590.165 930.375 591.244 931.376 592.62 932.095C593.996 932.815 595.575 933.174 597.358 933.174C598.828 933.174 600.157 932.924 601.345 932.424C602.565 931.923 603.628 931.173 604.535 930.172L607.022 933.081C605.896 934.394 604.488 935.395 602.8 936.083C601.142 936.771 599.281 937.115 597.217 937.115ZM622 937.115C619.936 937.115 617.966 936.833 616.09 936.27C614.244 935.708 612.79 935.019 611.727 934.206L613.603 930.641C614.667 931.36 615.98 931.97 617.544 932.471C619.108 932.971 620.703 933.221 622.329 933.221C624.424 933.221 625.925 932.924 626.832 932.33C627.77 931.736 628.24 930.907 628.24 929.844C628.24 929.062 627.958 928.452 627.395 928.014C626.832 927.576 626.082 927.248 625.143 927.029C624.236 926.81 623.22 926.622 622.094 926.466C620.968 926.278 619.842 926.06 618.717 925.809C617.591 925.528 616.559 925.153 615.621 924.683C614.682 924.183 613.932 923.511 613.369 922.666C612.806 921.791 612.524 920.634 612.524 919.195C612.524 917.694 612.947 916.38 613.791 915.254C614.635 914.129 615.824 913.269 617.356 912.674C618.92 912.049 620.765 911.736 622.892 911.736C624.518 911.736 626.16 911.939 627.817 912.346C629.506 912.721 630.882 913.269 631.945 913.988L630.022 917.553C628.896 916.802 627.723 916.286 626.504 916.005C625.284 915.724 624.064 915.583 622.845 915.583C620.875 915.583 619.405 915.911 618.435 916.568C617.466 917.193 616.981 918.007 616.981 919.007C616.981 919.852 617.262 920.508 617.825 920.978C618.42 921.415 619.17 921.759 620.077 922.01C621.015 922.26 622.047 922.479 623.173 922.666C624.299 922.823 625.425 923.042 626.551 923.323C627.677 923.573 628.693 923.933 629.6 924.402C630.538 924.871 631.289 925.528 631.852 926.372C632.446 927.217 632.743 928.343 632.743 929.75C632.743 931.251 632.305 932.549 631.429 933.643C630.554 934.738 629.318 935.598 627.723 936.224C626.129 936.818 624.221 937.115 622 937.115ZM645.502 937.115C643.437 937.115 641.467 936.833 639.591 936.27C637.746 935.708 636.291 935.019 635.228 934.206L637.105 930.641C638.168 931.36 639.481 931.97 641.045 932.471C642.609 932.971 644.204 933.221 645.83 933.221C647.925 933.221 649.426 932.924 650.333 932.33C651.272 931.736 651.741 930.907 651.741 929.844C651.741 929.062 651.459 928.452 650.896 928.014C650.333 927.576 649.583 927.248 648.645 927.029C647.738 926.81 646.721 926.622 645.595 926.466C644.47 926.278 643.344 926.06 642.218 925.809C641.092 925.528 640.06 925.153 639.122 924.683C638.183 924.183 637.433 923.511 636.87 922.666C636.307 921.791 636.026 920.634 636.026 919.195C636.026 917.694 636.448 916.38 637.292 915.254C638.137 914.129 639.325 913.269 640.857 912.674C642.421 912.049 644.266 911.736 646.393 911.736C648.019 911.736 649.661 911.939 651.318 912.346C653.007 912.721 654.383 913.269 655.447 913.988L653.523 917.553C652.397 916.802 651.225 916.286 650.005 916.005C648.785 915.724 647.566 915.583 646.346 915.583C644.376 915.583 642.906 915.911 641.936 916.568C640.967 917.193 640.482 918.007 640.482 919.007C640.482 919.852 640.764 920.508 641.327 920.978C641.921 921.415 642.671 921.759 643.578 922.01C644.516 922.26 645.548 922.479 646.674 922.666C647.8 922.823 648.926 923.042 650.052 923.323C651.178 923.573 652.194 923.933 653.101 924.402C654.039 924.871 654.79 925.528 655.353 926.372C655.947 927.217 656.244 928.343 656.244 929.75C656.244 931.251 655.806 932.549 654.931 933.643C654.055 934.738 652.82 935.598 651.225 936.224C649.63 936.818 647.722 937.115 645.502 937.115ZM660.09 914.832L662.435 905.309L663.045 908.03C662.138 908.03 661.372 907.749 660.746 907.186C660.152 906.623 659.855 905.872 659.855 904.934C659.855 903.965 660.152 903.198 660.746 902.635C661.372 902.041 662.123 901.744 662.998 901.744C663.905 901.744 664.64 902.057 665.203 902.682C665.766 903.277 666.047 904.027 666.047 904.934C666.047 905.216 666.032 905.513 666 905.825C665.969 906.107 665.891 906.435 665.766 906.81C665.672 907.186 665.516 907.671 665.297 908.265L663.045 914.832H660.09ZM668.956 914.832L671.301 905.309L671.911 908.03C671.004 908.03 670.238 907.749 669.613 907.186C669.018 906.623 668.721 905.872 668.721 904.934C668.721 903.965 669.018 903.198 669.613 902.635C670.238 902.041 670.989 901.744 671.864 901.744C672.771 901.744 673.506 902.057 674.069 902.682C674.632 903.277 674.914 904.027 674.914 904.934C674.914 905.216 674.898 905.513 674.867 905.825C674.835 906.107 674.757 906.435 674.632 906.81C674.538 907.186 674.382 907.671 674.163 908.265L671.911 914.832H668.956Z" fill="#272727"/>
<path d="M132.229 376V277.487H175.293C185.989 277.487 195.371 279.551 203.439 283.68C211.508 287.808 217.794 293.531 222.298 300.849C226.801 308.167 229.053 316.799 229.053 326.744C229.053 336.595 226.801 345.227 222.298 352.638C217.794 359.957 211.508 365.68 203.439 369.808C195.371 373.936 185.989 376 175.293 376H132.229ZM150.524 360.519H174.449C181.86 360.519 188.24 359.112 193.588 356.297C199.03 353.483 203.205 349.542 206.113 344.476C209.116 339.41 210.617 333.499 210.617 326.744C210.617 319.895 209.116 313.984 206.113 309.011C203.205 303.945 199.03 300.005 193.588 297.19C188.24 294.375 181.86 292.968 174.449 292.968H150.524V360.519ZM246.809 376V300.849H264.401V376H246.809ZM255.675 288.464C252.392 288.464 249.671 287.432 247.513 285.368C245.449 283.304 244.417 280.818 244.417 277.91C244.417 274.907 245.449 272.421 247.513 270.451C249.671 268.387 252.392 267.355 255.675 267.355C258.959 267.355 261.633 268.34 263.697 270.31C265.855 272.186 266.934 274.579 266.934 277.487C266.934 280.583 265.902 283.21 263.838 285.368C261.774 287.432 259.053 288.464 255.675 288.464ZM321.547 404.287C314.604 404.287 307.802 403.349 301.141 401.473C294.573 399.69 289.178 397.063 284.956 393.592L292.837 380.363C296.121 383.084 300.249 385.241 305.222 386.836C310.288 388.525 315.401 389.37 320.562 389.37C328.818 389.37 334.869 387.446 338.716 383.6C342.563 379.847 344.486 374.17 344.486 366.571V353.201L345.893 336.173L345.331 319.144V300.849H362.078V364.601C362.078 378.205 358.606 388.197 351.664 394.577C344.721 401.05 334.682 404.287 321.547 404.287ZM319.295 372.622C312.165 372.622 305.691 371.121 299.874 368.119C294.151 365.023 289.601 360.754 286.223 355.312C282.939 349.871 281.297 343.491 281.297 336.173C281.297 328.948 282.939 322.616 286.223 317.174C289.601 311.732 294.151 307.51 299.874 304.508C305.691 301.506 312.165 300.005 319.295 300.005C325.675 300.005 331.398 301.271 336.464 303.804C341.531 306.338 345.565 310.278 348.567 315.626C351.664 320.974 353.212 327.823 353.212 336.173C353.212 344.523 351.664 351.419 348.567 356.86C345.565 362.208 341.531 366.196 336.464 368.823C331.398 371.356 325.675 372.622 319.295 372.622ZM321.969 357.705C326.379 357.705 330.319 356.813 333.791 355.031C337.262 353.154 339.936 350.621 341.812 347.431C343.783 344.148 344.768 340.395 344.768 336.173C344.768 331.951 343.783 328.245 341.812 325.055C339.936 321.771 337.262 319.285 333.791 317.596C330.319 315.813 326.379 314.922 321.969 314.922C317.559 314.922 313.572 315.813 310.007 317.596C306.535 319.285 303.815 321.771 301.844 325.055C299.968 328.245 299.03 331.951 299.03 336.173C299.03 340.395 299.968 344.148 301.844 347.431C303.815 350.621 306.535 353.154 310.007 355.031C313.572 356.813 317.559 357.705 321.969 357.705ZM385.205 376V300.849H402.797V376H385.205ZM394.071 288.464C390.787 288.464 388.067 287.432 385.909 285.368C383.845 283.304 382.813 280.818 382.813 277.91C382.813 274.907 383.845 272.421 385.909 270.451C388.067 268.387 390.787 267.355 394.071 267.355C397.355 267.355 400.029 268.34 402.093 270.31C404.251 272.186 405.33 274.579 405.33 277.487C405.33 280.583 404.298 283.21 402.234 285.368C400.17 287.432 397.449 288.464 394.071 288.464ZM454.173 376.985C445.916 376.985 439.537 374.874 435.033 370.652C430.53 366.336 428.278 360.003 428.278 351.653V284.243H445.87V351.231C445.87 354.796 446.761 357.564 448.543 359.534C450.42 361.505 453 362.49 456.284 362.49C460.224 362.49 463.508 361.458 466.135 359.394L471.061 371.919C468.997 373.608 466.463 374.874 463.461 375.719C460.459 376.563 457.363 376.985 454.173 376.985ZM415.894 315.485V301.412H465.994V315.485H415.894ZM531.833 376V360.801L530.848 357.564V330.966C530.848 325.805 529.3 321.818 526.203 319.003C523.107 316.095 518.416 314.641 512.13 314.641C507.908 314.641 503.733 315.297 499.605 316.611C495.571 317.924 492.146 319.754 489.332 322.1L482.436 309.293C486.47 306.197 491.255 303.898 496.79 302.397C502.42 300.802 508.237 300.005 514.241 300.005C525.125 300.005 533.522 302.632 539.432 307.886C545.437 313.046 548.439 321.067 548.439 331.951V376H531.833ZM508.19 376.985C502.56 376.985 497.635 376.047 493.413 374.17C489.191 372.2 485.907 369.526 483.562 366.149C481.31 362.677 480.184 358.784 480.184 354.468C480.184 350.246 481.169 346.446 483.139 343.069C485.203 339.691 488.534 337.017 493.131 335.047C497.729 333.077 503.827 332.092 511.427 332.092H533.24V343.772H512.693C506.689 343.772 502.654 344.757 500.59 346.728C498.526 348.604 497.494 350.95 497.494 353.764C497.494 356.954 498.761 359.487 501.294 361.364C503.827 363.24 507.345 364.178 511.849 364.178C516.165 364.178 520.011 363.193 523.389 361.223C526.86 359.253 529.346 356.344 530.848 352.498L533.803 363.053C532.114 367.462 529.065 370.887 524.655 373.326C520.34 375.765 514.851 376.985 508.19 376.985ZM571.016 376V271.577H588.607V376H571.016ZM128.851 518V419.487H151.791L192.603 486.476H180.5L220.187 419.487H243.126L243.407 518H217.794L217.513 458.47H221.875L192.181 508.289H179.796L149.257 458.47H154.605V518H128.851ZM308.44 518V503.786L306.61 500.268V474.092C306.61 469.87 305.297 466.633 302.67 464.381C300.137 462.035 296.056 460.863 290.426 460.863C286.767 460.863 283.061 461.473 279.308 462.692C275.556 463.818 272.366 465.413 269.739 467.477L260.732 449.323C265.048 446.508 270.208 444.35 276.212 442.849C282.311 441.254 288.362 440.456 294.367 440.456C306.751 440.456 316.321 443.318 323.076 449.041C329.925 454.67 333.35 463.537 333.35 475.64V518H308.44ZM285.923 519.267C279.824 519.267 274.664 518.235 270.442 516.17C266.22 514.106 262.983 511.292 260.732 507.727C258.574 504.161 257.495 500.174 257.495 495.764C257.495 491.073 258.668 487.039 261.013 483.661C263.453 480.19 267.159 477.563 272.131 475.78C277.104 473.904 283.53 472.966 291.411 472.966H309.425V486.898H295.07C290.755 486.898 287.705 487.602 285.923 489.009C284.234 490.416 283.39 492.293 283.39 494.638C283.39 496.984 284.281 498.86 286.064 500.268C287.846 501.675 290.286 502.379 293.382 502.379C296.29 502.379 298.917 501.675 301.263 500.268C303.702 498.767 305.485 496.515 306.61 493.513L310.27 503.364C308.862 508.618 306.094 512.605 301.966 515.326C297.932 517.953 292.584 519.267 285.923 519.267ZM350.228 518V441.723H375.7V463.959L371.9 457.626C374.152 451.903 377.811 447.634 382.877 444.819C387.944 441.911 394.089 440.456 401.313 440.456V464.522C400.094 464.334 399.015 464.24 398.077 464.24C397.232 464.146 396.294 464.1 395.262 464.1C389.82 464.1 385.411 465.601 382.033 468.603C378.656 471.511 376.967 476.296 376.967 482.958V518H350.228ZM434.583 503.927L435.287 471.981L466.389 441.723H498.054L463.574 477.328L449.923 488.305L434.583 503.927ZM412.348 518V413.577H439.087V518H412.348ZM468.359 518L444.998 488.728L461.604 468.181L500.728 518H468.359ZM545.496 519.267C536.489 519.267 528.608 517.578 521.853 514.2C515.192 510.729 509.984 506.038 506.232 500.127C502.573 494.122 500.743 487.32 500.743 479.721C500.743 472.121 502.526 465.366 506.091 459.455C509.75 453.451 514.769 448.807 521.149 445.523C527.529 442.145 534.706 440.456 542.681 440.456C550.187 440.456 557.036 442.005 563.228 445.101C569.42 448.103 574.346 452.559 578.005 458.47C581.664 464.381 583.494 471.558 583.494 480.002C583.494 480.94 583.447 482.019 583.353 483.239C583.259 484.459 583.165 485.585 583.071 486.617H522.697V472.543H568.857L558.725 476.484C558.819 473.013 558.162 470.01 556.754 467.477C555.441 464.944 553.565 462.974 551.125 461.566C548.78 460.159 546.012 459.455 542.822 459.455C539.632 459.455 536.817 460.159 534.378 461.566C532.033 462.974 530.203 464.991 528.889 467.618C527.576 470.151 526.919 473.153 526.919 476.625V480.706C526.919 484.459 527.67 487.696 529.171 490.416C530.766 493.137 533.018 495.248 535.926 496.749C538.835 498.157 542.306 498.86 546.34 498.86C550.093 498.86 553.283 498.344 555.91 497.312C558.631 496.186 561.305 494.498 563.932 492.246L578.005 506.882C574.346 510.916 569.843 514.013 564.495 516.17C559.147 518.235 552.814 519.267 545.496 519.267ZM629.879 519.267C620.122 519.267 612.522 516.874 607.081 512.089C601.639 507.211 598.918 499.892 598.918 490.135V424.694H625.657V489.854C625.657 492.574 626.408 494.732 627.909 496.327C629.41 497.828 631.333 498.579 633.679 498.579C636.869 498.579 639.59 497.781 641.841 496.186L648.456 514.904C646.204 516.405 643.436 517.484 640.153 518.141C636.869 518.891 633.444 519.267 629.879 519.267ZM587.8 464.522V444.538H643.108V464.522H587.8ZM658.767 518V441.723H685.506V518H658.767ZM672.136 433.279C667.258 433.279 663.317 431.919 660.315 429.198C657.312 426.477 655.811 423.1 655.811 419.065C655.811 415.031 657.312 411.653 660.315 408.932C663.317 406.212 667.258 404.851 672.136 404.851C677.015 404.851 680.955 406.165 683.958 408.792C686.96 411.325 688.461 414.609 688.461 418.643C688.461 422.865 686.96 426.383 683.958 429.198C681.049 431.919 677.109 433.279 672.136 433.279ZM752.561 440.456C758.472 440.456 763.82 441.676 768.605 444.116C773.39 446.461 777.143 450.12 779.864 455.093C782.678 460.065 784.086 466.492 784.086 474.373V518H757.346V478.736C757.346 473.294 756.221 469.354 753.969 466.914C751.811 464.381 748.762 463.114 744.821 463.114C742.007 463.114 739.426 463.771 737.081 465.085C734.735 466.304 732.906 468.228 731.592 470.855C730.279 473.482 729.622 476.906 729.622 481.128V518H702.883V441.723H728.356V463.396L723.43 457.063C726.338 451.527 730.326 447.399 735.392 444.678C740.458 441.864 746.182 440.456 752.561 440.456ZM839.129 546.569C831.811 546.569 824.822 545.724 818.16 544.035C811.593 542.347 805.964 539.86 801.272 536.577L810.983 517.859C814.173 520.392 818.113 522.363 822.805 523.77C827.589 525.271 832.234 526.022 836.737 526.022C843.961 526.022 849.168 524.427 852.358 521.237C855.548 518.141 857.143 513.59 857.143 507.586V498.579L858.551 477.188L858.41 455.656V441.723H883.882V504.067C883.882 518.516 879.989 529.212 872.202 536.154C864.414 543.097 853.39 546.569 839.129 546.569ZM834.485 514.059C827.73 514.059 821.491 512.558 815.768 509.556C810.139 506.46 805.588 502.191 802.117 496.749C798.739 491.214 797.051 484.693 797.051 477.188C797.051 469.682 798.739 463.208 802.117 457.767C805.588 452.231 810.139 447.962 815.768 444.96C821.491 441.958 827.73 440.456 834.485 440.456C840.959 440.456 846.494 441.77 851.092 444.397C855.689 446.93 859.16 450.918 861.506 456.359C863.945 461.801 865.165 468.744 865.165 477.188C865.165 485.632 863.945 492.574 861.506 498.016C859.16 503.458 855.689 507.492 851.092 510.119C846.494 512.746 840.959 514.059 834.485 514.059ZM840.818 492.809C844.008 492.809 846.823 492.152 849.262 490.839C851.795 489.525 853.766 487.696 855.173 485.35C856.674 483.005 857.425 480.284 857.425 477.188C857.425 474.092 856.674 471.371 855.173 469.025C853.766 466.68 851.795 464.897 849.262 463.677C846.823 462.364 844.008 461.707 840.818 461.707C837.628 461.707 834.767 462.364 832.234 463.677C829.7 464.897 827.683 466.68 826.182 469.025C824.775 471.371 824.071 474.092 824.071 477.188C824.071 480.284 824.775 483.005 826.182 485.35C827.683 487.696 829.7 489.525 832.234 490.839C834.767 492.152 837.628 492.809 840.818 492.809ZM117.03 659L160.516 560.487H187.959L231.586 659H202.595L168.538 574.138H179.515L145.458 659H117.03ZM140.814 639.86L147.991 619.313H196.121L203.299 639.86H140.814ZM274.826 687.569C267.508 687.569 260.518 686.724 253.857 685.035C247.289 683.347 241.66 680.86 236.969 677.577L246.679 658.859C249.869 661.392 253.81 663.363 258.501 664.77C263.286 666.271 267.93 667.022 272.433 667.022C279.658 667.022 284.865 665.427 288.055 662.237C291.245 659.141 292.84 654.59 292.84 648.586V639.579L294.247 618.188L294.106 596.656V582.723H319.579V645.067C319.579 659.516 315.685 670.212 307.898 677.154C300.111 684.097 289.087 687.569 274.826 687.569ZM270.182 655.059C263.427 655.059 257.187 653.558 251.464 650.556C245.835 647.46 241.285 643.191 237.813 637.749C234.436 632.214 232.747 625.693 232.747 618.188C232.747 610.682 234.436 604.208 237.813 598.767C241.285 593.231 245.835 588.962 251.464 585.96C257.187 582.958 263.427 581.456 270.182 581.456C276.655 581.456 282.191 582.77 286.788 585.397C291.385 587.93 294.857 591.918 297.202 597.359C299.642 602.801 300.861 609.744 300.861 618.188C300.861 626.632 299.642 633.574 297.202 639.016C294.857 644.458 291.385 648.492 286.788 651.119C282.191 653.746 276.655 655.059 270.182 655.059ZM276.515 633.809C279.705 633.809 282.519 633.152 284.959 631.839C287.492 630.525 289.462 628.696 290.869 626.35C292.37 624.005 293.121 621.284 293.121 618.188C293.121 615.092 292.37 612.371 290.869 610.025C289.462 607.68 287.492 605.897 284.959 604.677C282.519 603.364 279.705 602.707 276.515 602.707C273.325 602.707 270.463 603.364 267.93 604.677C265.397 605.897 263.38 607.68 261.878 610.025C260.471 612.371 259.768 615.092 259.768 618.188C259.768 621.284 260.471 624.005 261.878 626.35C263.38 628.696 265.397 630.525 267.93 631.839C270.463 633.152 273.325 633.809 276.515 633.809ZM376.727 660.267C367.72 660.267 359.839 658.578 353.084 655.2C346.423 651.729 341.216 647.038 337.463 641.127C333.804 635.122 331.974 628.32 331.974 620.721C331.974 613.121 333.757 606.366 337.322 600.455C340.981 594.451 346.001 589.807 352.38 586.523C358.76 583.145 365.938 581.456 373.912 581.456C381.418 581.456 388.267 583.005 394.459 586.101C400.652 589.103 405.577 593.559 409.236 599.47C412.895 605.381 414.725 612.558 414.725 621.002C414.725 621.94 414.678 623.019 414.584 624.239C414.49 625.459 414.396 626.585 414.303 627.617H353.928V613.543H400.089L389.956 617.484C390.05 614.013 389.393 611.01 387.986 608.477C386.672 605.944 384.796 603.974 382.356 602.566C380.011 601.159 377.243 600.455 374.053 600.455C370.863 600.455 368.049 601.159 365.609 602.566C363.264 603.974 361.434 605.991 360.121 608.618C358.807 611.151 358.15 614.153 358.15 617.625V621.706C358.15 625.459 358.901 628.696 360.402 631.416C361.997 634.137 364.249 636.248 367.157 637.749C370.066 639.157 373.537 639.86 377.571 639.86C381.324 639.86 384.514 639.344 387.141 638.312C389.862 637.186 392.536 635.498 395.163 633.246L409.236 647.882C405.577 651.916 401.074 655.013 395.726 657.17C390.378 659.235 384.045 660.267 376.727 660.267ZM476.732 581.456C482.642 581.456 487.99 582.676 492.775 585.116C497.56 587.461 501.313 591.12 504.034 596.093C506.848 601.065 508.256 607.492 508.256 615.373V659H481.517V619.736C481.517 614.294 480.391 610.354 478.139 607.914C475.981 605.381 472.932 604.114 468.991 604.114C466.177 604.114 463.597 604.771 461.251 606.085C458.906 607.304 457.076 609.228 455.763 611.855C454.449 614.482 453.792 617.906 453.792 622.128V659H427.053V582.723H452.526V604.396L447.6 598.063C450.509 592.527 454.496 588.399 459.562 585.678C464.629 582.864 470.352 581.456 476.732 581.456ZM564.988 660.267C556.544 660.267 548.992 658.578 542.331 655.2C535.763 651.823 530.603 647.178 526.85 641.268C523.097 635.263 521.221 628.414 521.221 620.721C521.221 613.027 523.097 606.225 526.85 600.315C530.603 594.404 535.763 589.807 542.331 586.523C548.992 583.145 556.544 581.456 564.988 581.456C573.62 581.456 581.079 583.286 587.365 586.945C593.651 590.604 598.107 595.764 600.734 602.426L580.047 612.981C578.264 609.415 576.059 606.835 573.432 605.24C570.805 603.551 567.944 602.707 564.848 602.707C561.752 602.707 558.937 603.411 556.404 604.818C553.871 606.225 551.853 608.289 550.352 611.01C548.945 613.637 548.241 616.874 548.241 620.721C548.241 624.661 548.945 627.992 550.352 630.713C551.853 633.434 553.871 635.498 556.404 636.905C558.937 638.312 561.752 639.016 564.848 639.016C567.944 639.016 570.805 638.219 573.432 636.624C576.059 634.935 578.264 632.308 580.047 628.743L600.734 639.297C598.107 645.959 593.651 651.119 587.365 654.778C581.079 658.437 573.62 660.267 564.988 660.267ZM622.516 687.569C618.482 687.569 614.4 686.912 610.272 685.598C606.238 684.379 602.954 682.737 600.421 680.673L609.709 661.955C611.304 663.363 613.134 664.442 615.198 665.192C617.356 666.037 619.467 666.459 621.531 666.459C624.439 666.459 626.738 665.802 628.427 664.489C630.116 663.175 631.57 661.111 632.79 658.296L636.308 649.43L638.419 646.756L664.314 582.723H689.786L656.855 662.096C654.228 668.664 651.179 673.777 647.707 677.436C644.33 681.189 640.53 683.816 636.308 685.317C632.18 686.818 627.582 687.569 622.516 687.569ZM632.93 662.237L599.295 582.723H626.738L651.507 644.364L632.93 662.237Z" fill="white"/>
<defs>
<filter id="filter0_d_90_8" x="-62.2087" y="0.099359" width="1356.6" height="1115.89" filterUnits="userSpaceOnUse" color-interpolation-filters="sRGB">
<feFlood flood-opacity="0" result="BackgroundImageFix"/>
<feColorMatrix in="SourceAlpha" type="matrix" values="0 0 0 0 0 0 0 0 0 0 0 0 0 0 0 0 0 0 127 0" result="hardAlpha"/>
<feOffset dx="7.1" dy="7.1"/>
<feGaussianBlur stdDeviation="5"/>
<feColorMatrix type="matrix" values="0 0 0 0 0 0 0 0 0 0 0 0 0 0 0 0 0 0 0.35 0"/>
<feBlend mode="normal" in2="BackgroundImageFix" result="effect1_dropShadow_90_8"/>
<feBlend mode="normal" in="SourceGraphic" in2="effect1_dropShadow_90_8" result="shape"/>
</filter>
<filter id="filter1_d_90_8" x="1765.11" y="186.1" width="389.314" height="821" filterUnits="userSpaceOnUse" color-interpolation-filters="sRGB">
<feFlood flood-opacity="0" result="BackgroundImageFix"/>
<feColorMatrix in="SourceAlpha" type="matrix" values="0 0 0 0 0 0 0 0 0 0 0 0 0 0 0 0 0 0 127 0" result="hardAlpha"/>
<feOffset dx="7.1" dy="7.1"/>
<feGaussianBlur stdDeviation="5"/>
<feColorMatrix type="matrix" values="0 0 0 0 0 0 0 0 0 0 0 0 0 0 0 0 0 0 0.35 0"/>
<feBlend mode="normal" in2="BackgroundImageFix" result="effect1_dropShadow_90_8"/>
<feBlend mode="normal" in="SourceGraphic" in2="effect1_dropShadow_90_8" result="shape"/>
</filter>
</defs>
</svg>
