<svg width="865" height="247" viewBox="0 0 865 247" fill="none" xmlns="http://www.w3.org/2000/svg">
<path fill-rule="evenodd" clip-rule="evenodd" d="M14.4964 0H886C860.692 0 865.5 0 865.5 63V217.732C869.016 226.716 876.467 234 865.5 234H106.056C95.0889 234 83.3482 226.716 79.8328 217.732L1.00401 16.2684C-2.51141 7.28348 3.52941 0 14.4964 0Z" fill="#C09150"/>
<path d="M261.489 159.626V130.707H268.365V159.626H261.489ZM250.114 148.38V141.953H279.74V148.38H250.114ZM305.75 168.302C302.194 168.302 298.98 167.402 296.11 165.602C293.282 163.803 291.055 161.19 289.426 157.762C287.798 154.292 286.984 150.093 286.984 145.166C286.984 140.239 287.798 136.062 289.426 132.635C291.055 129.164 293.282 126.53 296.11 124.73C298.98 122.931 302.194 122.031 305.75 122.031C309.349 122.031 312.562 122.931 315.389 124.73C318.217 126.53 320.445 129.164 322.073 132.635C323.744 136.062 324.579 140.239 324.579 145.166C324.579 150.093 323.744 154.292 322.073 157.762C320.445 161.19 318.217 163.803 315.389 165.602C312.562 167.402 309.349 168.302 305.75 168.302ZM305.75 161.04C307.849 161.04 309.67 160.483 311.212 159.369C312.755 158.212 313.954 156.455 314.811 154.099C315.711 151.743 316.161 148.765 316.161 145.166C316.161 141.525 315.711 138.547 314.811 136.234C313.954 133.877 312.755 132.142 311.212 131.028C309.67 129.871 307.849 129.293 305.75 129.293C303.736 129.293 301.937 129.871 300.351 131.028C298.809 132.142 297.588 133.877 296.688 136.234C295.832 138.547 295.403 141.525 295.403 145.166C295.403 148.765 295.832 151.743 296.688 154.099C297.588 156.455 298.809 158.212 300.351 159.369C301.937 160.483 303.736 161.04 305.75 161.04ZM337.36 167.659V125.887L341.023 129.679H327.849V122.674H345.714V167.659H337.36ZM354.06 167.659V162.068L371.925 145.102C373.425 143.688 374.539 142.446 375.267 141.375C375.995 140.304 376.467 139.318 376.681 138.419C376.938 137.476 377.066 136.598 377.066 135.784C377.066 133.727 376.359 132.142 374.946 131.028C373.532 129.871 371.454 129.293 368.712 129.293C366.527 129.293 364.535 129.679 362.735 130.45C360.979 131.221 359.458 132.399 358.173 133.984L352.324 129.486C354.081 127.129 356.437 125.309 359.394 124.023C362.393 122.695 365.734 122.031 369.419 122.031C372.675 122.031 375.503 122.567 377.902 123.638C380.344 124.666 382.208 126.144 383.493 128.072C384.821 130 385.485 132.292 385.485 134.948C385.485 136.405 385.292 137.862 384.907 139.318C384.521 140.732 383.793 142.232 382.722 143.817C381.651 145.402 380.087 147.18 378.03 149.151L362.671 163.739L360.936 160.59H387.22V167.659H354.06ZM406.18 168.302C403.01 168.302 399.904 167.852 396.862 166.952C393.863 166.009 391.335 164.724 389.279 163.096L392.877 156.605C394.505 157.934 396.476 159.005 398.79 159.819C401.103 160.633 403.524 161.04 406.052 161.04C409.051 161.04 411.386 160.44 413.057 159.24C414.727 157.998 415.563 156.327 415.563 154.228C415.563 152.171 414.792 150.543 413.249 149.344C411.707 148.144 409.222 147.544 405.795 147.544H401.682V141.825L414.535 126.53L415.627 129.679H391.464V122.674H422.118V128.265L409.265 143.56L404.895 140.989H407.401C412.928 140.989 417.062 142.232 419.804 144.716C422.589 147.159 423.982 150.307 423.982 154.163C423.982 156.691 423.339 159.026 422.054 161.168C420.768 163.31 418.797 165.045 416.141 166.374C413.528 167.659 410.207 168.302 406.18 168.302ZM446.564 157.441V151.657L468.735 122.674H477.668L455.818 151.657L451.641 150.372H487.308V157.441H446.564ZM471.242 167.659V157.441L471.499 150.372V141.31H479.339V167.659H471.242ZM505.733 168.302C502.563 168.302 499.457 167.852 496.415 166.952C493.416 166.009 490.888 164.724 488.832 163.096L492.366 156.605C493.994 157.934 495.965 159.005 498.278 159.819C500.635 160.633 503.077 161.04 505.605 161.04C508.561 161.04 510.874 160.418 512.545 159.176C514.259 157.934 515.116 156.263 515.116 154.163C515.116 152.75 514.752 151.507 514.023 150.436C513.338 149.365 512.095 148.551 510.296 147.994C508.539 147.437 506.119 147.159 503.034 147.159H492.173L494.487 122.674H520.9V129.679H497.572L501.942 125.694L500.206 144.01L495.836 140.089H504.898C509.353 140.089 512.931 140.689 515.63 141.889C518.372 143.046 520.364 144.674 521.606 146.773C522.892 148.829 523.534 151.186 523.534 153.842C523.534 156.455 522.892 158.855 521.606 161.04C520.321 163.225 518.35 164.981 515.694 166.309C513.081 167.637 509.76 168.302 505.733 168.302ZM547.825 168.302C543.755 168.302 540.264 167.445 537.35 165.731C534.437 163.974 532.209 161.447 530.667 158.148C529.124 154.849 528.353 150.779 528.353 145.937C528.353 140.796 529.274 136.448 531.117 132.892C533.002 129.336 535.594 126.637 538.893 124.794C542.234 122.952 546.069 122.031 550.396 122.031C552.667 122.031 554.83 122.267 556.887 122.738C558.986 123.209 560.764 123.938 562.221 124.923L559.136 131.221C557.894 130.407 556.544 129.85 555.087 129.55C553.674 129.207 552.174 129.036 550.589 129.036C546.347 129.036 542.984 130.343 540.499 132.956C538.014 135.569 536.772 139.425 536.772 144.524C536.772 145.338 536.793 146.302 536.836 147.416C536.879 148.487 537.029 149.579 537.286 150.693L534.715 147.865C535.487 146.109 536.536 144.652 537.864 143.495C539.235 142.296 540.842 141.396 542.684 140.796C544.569 140.197 546.604 139.897 548.789 139.897C551.746 139.897 554.38 140.475 556.694 141.632C559.007 142.746 560.85 144.352 562.221 146.452C563.592 148.508 564.277 150.929 564.277 153.714C564.277 156.67 563.549 159.24 562.092 161.425C560.636 163.61 558.665 165.303 556.18 166.502C553.695 167.702 550.91 168.302 547.825 168.302ZM547.376 161.747C549.089 161.747 550.61 161.447 551.938 160.847C553.266 160.204 554.295 159.305 555.023 158.148C555.794 156.991 556.18 155.641 556.18 154.099C556.18 151.743 555.366 149.879 553.738 148.508C552.11 147.137 549.925 146.452 547.183 146.452C545.383 146.452 543.798 146.794 542.427 147.48C541.099 148.122 540.028 149.022 539.214 150.179C538.443 151.336 538.057 152.664 538.057 154.163C538.057 155.534 538.421 156.798 539.15 157.955C539.878 159.112 540.928 160.033 542.299 160.718C543.712 161.404 545.405 161.747 547.376 161.747ZM593.924 167.659L612.496 126.015L614.681 129.743H589.168L593.153 125.694V137.39H585.377V122.674H620.336V128.265L602.856 167.659H593.924ZM642.432 168.302C638.705 168.302 635.47 167.745 632.728 166.631C629.986 165.517 627.865 163.953 626.366 161.939C624.866 159.883 624.117 157.484 624.117 154.742C624.117 152 624.845 149.686 626.302 147.801C627.758 145.916 629.858 144.481 632.599 143.495C635.341 142.51 638.619 142.017 642.432 142.017C646.245 142.017 649.522 142.51 652.264 143.495C655.049 144.481 657.17 145.937 658.627 147.865C660.126 149.751 660.876 152.043 660.876 154.742C660.876 157.484 660.105 159.883 658.562 161.939C657.063 163.953 654.921 165.517 652.136 166.631C649.394 167.745 646.159 168.302 642.432 168.302ZM642.432 161.747C645.517 161.747 647.959 161.104 649.758 159.819C651.558 158.533 652.457 156.755 652.457 154.485C652.457 152.257 651.558 150.5 649.758 149.215C647.959 147.93 645.517 147.287 642.432 147.287C639.347 147.287 636.927 147.93 635.17 149.215C633.413 150.5 632.535 152.257 632.535 154.485C632.535 156.755 633.413 158.533 635.17 159.819C636.927 161.104 639.347 161.747 642.432 161.747ZM642.432 146.387C638.962 146.387 635.984 145.937 633.499 145.038C631.014 144.095 629.086 142.746 627.715 140.989C626.387 139.19 625.723 137.048 625.723 134.563C625.723 131.992 626.409 129.786 627.78 127.943C629.193 126.058 631.164 124.602 633.692 123.573C636.22 122.545 639.133 122.031 642.432 122.031C645.774 122.031 648.708 122.545 651.236 123.573C653.764 124.602 655.735 126.058 657.149 127.943C658.562 129.786 659.269 131.992 659.269 134.563C659.269 137.048 658.584 139.19 657.213 140.989C655.885 142.746 653.957 144.095 651.429 145.038C648.901 145.937 645.902 146.387 642.432 146.387ZM642.432 141.246C645.088 141.246 647.188 140.689 648.73 139.575C650.272 138.419 651.043 136.876 651.043 134.948C651.043 132.935 650.251 131.371 648.666 130.257C647.08 129.143 645.003 128.586 642.432 128.586C639.861 128.586 637.805 129.143 636.263 130.257C634.72 131.371 633.949 132.935 633.949 134.948C633.949 136.876 634.699 138.419 636.198 139.575C637.741 140.689 639.819 141.246 642.432 141.246ZM681.463 122.031C685.576 122.031 689.067 122.909 691.938 124.666C694.851 126.38 697.079 128.886 698.621 132.185C700.164 135.484 700.935 139.554 700.935 144.395C700.935 149.536 699.992 153.885 698.107 157.441C696.265 160.997 693.694 163.696 690.395 165.538C687.097 167.38 683.262 168.302 678.892 168.302C676.621 168.302 674.458 168.066 672.401 167.595C670.345 167.123 668.567 166.395 667.067 165.41L670.152 159.112C671.395 159.926 672.744 160.504 674.201 160.847C675.657 161.147 677.157 161.297 678.699 161.297C682.941 161.297 686.304 159.99 688.789 157.377C691.274 154.763 692.516 150.907 692.516 145.809C692.516 144.995 692.495 144.052 692.452 142.981C692.409 141.867 692.259 140.753 692.002 139.64L694.573 142.467C693.844 144.224 692.795 145.702 691.424 146.901C690.053 148.058 688.446 148.936 686.604 149.536C684.762 150.136 682.727 150.436 680.499 150.436C677.585 150.436 674.951 149.879 672.594 148.765C670.281 147.608 668.438 146.002 667.067 143.945C665.696 141.846 665.011 139.404 665.011 136.619C665.011 133.62 665.739 131.05 667.196 128.907C668.653 126.722 670.623 125.03 673.108 123.83C675.636 122.631 678.421 122.031 681.463 122.031ZM681.913 128.586C680.199 128.586 678.678 128.907 677.35 129.55C676.022 130.15 674.972 131.028 674.201 132.185C673.472 133.299 673.108 134.648 673.108 136.234C673.108 138.59 673.922 140.454 675.55 141.825C677.178 143.196 679.363 143.881 682.105 143.881C683.905 143.881 685.49 143.56 686.861 142.917C688.232 142.232 689.303 141.31 690.074 140.154C690.845 138.954 691.231 137.626 691.231 136.169C691.231 134.755 690.867 133.492 690.138 132.378C689.41 131.221 688.36 130.3 686.989 129.614C685.618 128.929 683.926 128.586 681.913 128.586ZM725.352 168.302C721.796 168.302 718.583 167.402 715.713 165.602C712.885 163.803 710.657 161.19 709.029 157.762C707.401 154.292 706.587 150.093 706.587 145.166C706.587 140.239 707.401 136.062 709.029 132.635C710.657 129.164 712.885 126.53 715.713 124.73C718.583 122.931 721.796 122.031 725.352 122.031C728.951 122.031 732.164 122.931 734.992 124.73C737.82 126.53 740.048 129.164 741.676 132.635C743.346 136.062 744.182 140.239 744.182 145.166C744.182 150.093 743.346 154.292 741.676 157.762C740.048 161.19 737.82 163.803 734.992 165.602C732.164 167.402 728.951 168.302 725.352 168.302ZM725.352 161.04C727.452 161.04 729.273 160.483 730.815 159.369C732.357 158.212 733.557 156.455 734.414 154.099C735.313 151.743 735.763 148.765 735.763 145.166C735.763 141.525 735.313 138.547 734.414 136.234C733.557 133.877 732.357 132.142 730.815 131.028C729.273 129.871 727.452 129.293 725.352 129.293C723.339 129.293 721.539 129.871 719.954 131.028C718.412 132.142 717.191 133.877 716.291 136.234C715.434 138.547 715.006 141.525 715.006 145.166C715.006 148.765 715.434 151.743 716.291 154.099C717.191 156.455 718.412 158.212 719.954 159.369C721.539 160.483 723.339 161.04 725.352 161.04Z" fill="white"/>
<path d="M529.355 98.5612V67.0716H534.168L547.934 90.059H545.414L558.955 67.0716H563.768L563.813 98.5612H558.28L558.235 75.7537H559.405L547.889 94.9624H545.279L533.583 75.7537H534.933V98.5612H529.355ZM582.576 98.8761C580.116 98.8761 577.927 98.3513 576.008 97.3017C574.088 96.222 572.574 94.7525 571.464 92.8931C570.355 91.0337 569.8 88.9194 569.8 86.5502C569.8 84.151 570.355 82.0367 571.464 80.2073C572.574 78.3479 574.088 76.8934 576.008 75.8437C577.927 74.7941 580.116 74.2692 582.576 74.2692C585.065 74.2692 587.269 74.7941 589.188 75.8437C591.138 76.8934 592.652 78.3329 593.732 80.1623C594.842 81.9917 595.396 84.121 595.396 86.5502C595.396 88.9194 594.842 91.0337 593.732 92.8931C592.652 94.7525 591.138 96.222 589.188 97.3017C587.269 98.3513 585.065 98.8761 582.576 98.8761ZM582.576 94.0627C583.955 94.0627 585.185 93.7628 586.264 93.163C587.344 92.5632 588.184 91.6935 588.784 90.5539C589.413 89.4143 589.728 88.0797 589.728 86.5502C589.728 84.9907 589.413 83.6561 588.784 82.5465C588.184 81.4069 587.344 80.5372 586.264 79.9374C585.185 79.3376 583.97 79.0377 582.621 79.0377C581.241 79.0377 580.011 79.3376 578.932 79.9374C577.882 80.5372 577.042 81.4069 576.413 82.5465C575.783 83.6561 575.468 84.9907 575.468 86.5502C575.468 88.0797 575.783 89.4143 576.413 90.5539C577.042 91.6935 577.882 92.5632 578.932 93.163C580.011 93.7628 581.226 94.0627 582.576 94.0627ZM600.774 98.5612V74.5391H606.127V81.152L605.497 79.2176C606.217 77.5981 607.341 76.3685 608.871 75.5288C610.43 74.6891 612.365 74.2692 614.674 74.2692V79.6225C614.434 79.5625 614.209 79.5325 613.999 79.5325C613.789 79.5025 613.579 79.4875 613.369 79.4875C611.24 79.4875 609.546 80.1173 608.286 81.3769C607.027 82.6065 606.397 84.4509 606.397 86.9101V98.5612H600.774ZM630.516 98.8761C627.847 98.8761 625.507 98.3513 623.498 97.3017C621.519 96.222 619.974 94.7525 618.865 92.8931C617.785 91.0337 617.245 88.9194 617.245 86.5502C617.245 84.151 617.77 82.0367 618.82 80.2073C619.899 78.3479 621.369 76.8934 623.228 75.8437C625.118 74.7941 627.262 74.2692 629.661 74.2692C632 74.2692 634.085 74.7791 635.914 75.7987C637.743 76.8184 639.183 78.2579 640.233 80.1173C641.282 81.9767 641.807 84.166 641.807 86.6852C641.807 86.9251 641.792 87.195 641.762 87.4949C641.762 87.7948 641.747 88.0797 641.717 88.3496H621.699V84.6158H638.748L636.544 85.7854C636.574 84.4059 636.289 83.1913 635.689 82.1416C635.089 81.092 634.265 80.2673 633.215 79.6675C632.195 79.0677 631.011 78.7678 629.661 78.7678C628.282 78.7678 627.067 79.0677 626.017 79.6675C624.998 80.2673 624.188 81.107 623.588 82.1866C623.018 83.2363 622.733 84.4809 622.733 85.9204V86.8201C622.733 88.2596 623.063 89.5342 623.723 90.6439C624.383 91.7535 625.313 92.6082 626.512 93.208C627.712 93.8078 629.091 94.1077 630.651 94.1077C632 94.1077 633.215 93.8978 634.295 93.4779C635.374 93.0581 636.334 92.3983 637.174 91.4986L640.188 94.9624C639.108 96.222 637.743 97.1967 636.094 97.8865C634.475 98.5463 632.615 98.8761 630.516 98.8761ZM659.641 98.5612V74.5391H665.264V98.5612H659.641ZM662.475 70.5804C661.425 70.5804 660.556 70.2506 659.866 69.5908C659.206 68.931 658.876 68.1362 658.876 67.2066C658.876 66.2469 659.206 65.4521 659.866 64.8223C660.556 64.1626 661.425 63.8327 662.475 63.8327C663.525 63.8327 664.379 64.1476 665.039 64.7774C665.729 65.3772 666.074 66.1419 666.074 67.0716C666.074 68.0613 665.744 68.901 665.084 69.5908C664.424 70.2506 663.555 70.5804 662.475 70.5804ZM686.275 74.2692C688.194 74.2692 689.904 74.6441 691.403 75.3939C692.933 76.1436 694.132 77.2982 695.002 78.8577C695.872 80.3872 696.307 82.3666 696.307 84.7958V98.5612H690.684V85.5155C690.684 83.3862 690.174 81.7968 689.154 80.7471C688.164 79.6974 686.77 79.1726 684.97 79.1726C683.651 79.1726 682.481 79.4425 681.462 79.9824C680.442 80.5222 679.647 81.3319 679.077 82.4116C678.538 83.4612 678.268 84.7958 678.268 86.4152V98.5612H672.644V74.5391H677.998V81.017L677.053 79.0377C677.893 77.5082 679.107 76.3386 680.697 75.5288C682.316 74.6891 684.176 74.2692 686.275 74.2692ZM704.205 98.5612V73.1896C704.205 70.6704 704.94 68.6611 706.409 67.1616C707.909 65.6321 710.038 64.8673 712.797 64.8673C713.787 64.8673 714.716 64.9723 715.586 65.1822C716.486 65.3921 717.235 65.722 717.835 66.1719L716.306 70.4005C715.886 70.0706 715.406 69.8307 714.866 69.6807C714.326 69.5008 713.772 69.4108 713.202 69.4108C712.032 69.4108 711.147 69.7407 710.548 70.4005C709.948 71.0303 709.648 71.99 709.648 73.2796V75.9787L709.828 78.4978V98.5612H704.205ZM700.246 79.2176V74.7191H716.261V79.2176H700.246ZM730.491 98.8761C728.032 98.8761 725.842 98.3513 723.923 97.3017C722.004 96.222 720.489 94.7525 719.38 92.8931C718.27 91.0337 717.715 88.9194 717.715 86.5502C717.715 84.151 718.27 82.0367 719.38 80.2073C720.489 78.3479 722.004 76.8934 723.923 75.8437C725.842 74.7941 728.032 74.2692 730.491 74.2692C732.98 74.2692 735.184 74.7941 737.104 75.8437C739.053 76.8934 740.568 78.3329 741.647 80.1623C742.757 81.9917 743.312 84.121 743.312 86.5502C743.312 88.9194 742.757 91.0337 741.647 92.8931C740.568 94.7525 739.053 96.222 737.104 97.3017C735.184 98.3513 732.98 98.8761 730.491 98.8761ZM730.491 94.0627C731.87 94.0627 733.1 93.7628 734.18 93.163C735.259 92.5632 736.099 91.6935 736.699 90.5539C737.329 89.4143 737.644 88.0797 737.644 86.5502C737.644 84.9907 737.329 83.6561 736.699 82.5465C736.099 81.4069 735.259 80.5372 734.18 79.9374C733.1 79.3376 731.885 79.0377 730.536 79.0377C729.156 79.0377 727.927 79.3376 726.847 79.9374C725.797 80.5372 724.958 81.4069 724.328 82.5465C723.698 83.6561 723.383 84.9907 723.383 86.5502C723.383 88.0797 723.698 89.4143 724.328 90.5539C724.958 91.6935 725.797 92.5632 726.847 93.163C727.927 93.7628 729.141 94.0627 730.491 94.0627Z" fill="white"/>
</svg>
