<svg width="241" height="30" viewBox="0 0 241 30" fill="none" xmlns="http://www.w3.org/2000/svg">
<path fill-rule="evenodd" clip-rule="evenodd" d="M170.925 -0.00012H226.27C229.92 -0.00012 234.07 3.58164 235.54 7.99989L240.197 21.9998C241.667 26.4181 239.9 29.9998 236.25 29.9998H180.905C177.255 29.9998 173.105 26.4181 171.635 21.9998L166.978 7.99989C165.508 3.58164 167.275 -0.00012 170.925 -0.00012Z" fill="#272727"/>
<path fill-rule="evenodd" clip-rule="evenodd" d="M88.016 -0.00012H143.361C147.011 -0.00012 151.161 3.58164 152.631 7.99989L157.288 21.9998C158.758 26.4181 156.991 29.9998 153.341 29.9998H97.9963C94.3466 29.9998 90.1965 26.4181 88.7265 21.9998L84.069 7.99989C82.5991 3.58164 84.3663 -0.00012 88.016 -0.00012Z" fill="#C09150"/>
<path fill-rule="evenodd" clip-rule="evenodd" d="M5.10728 -0.00012H60.4523C64.102 -0.00012 68.2522 3.58164 69.722 7.99989L74.3795 21.9998C75.8495 26.4181 74.0824 29.9998 70.4326 29.9998H15.0876C11.4379 29.9998 7.28775 26.4181 5.81775 21.9998L1.16025 7.99989C-0.3096 3.58164 1.45755 -0.00012 5.10728 -0.00012Z" fill="#272727"/>
</svg>
