<svg width="469" height="122" viewBox="0 0 469 122" fill="none" xmlns="http://www.w3.org/2000/svg">
<g clip-path="url(#clip0_0_26)">
<path d="M198.442 73.1667V27.2733H207.227L226.764 59.6609H222.11L241.319 27.2733H250.039L250.17 73.1667H240.205L240.139 42.5492H241.975L226.633 68.3151H221.847L206.178 42.5492H208.407V73.1667H198.442ZM260.337 73.1667V37.8943H270.565V73.1667H260.337ZM265.451 32.9772C263.572 32.9772 262.042 32.4308 260.862 31.3381C259.682 30.2454 259.092 28.8905 259.092 27.2733C259.092 25.6561 259.682 24.3011 260.862 23.2084C262.042 22.1157 263.572 21.5694 265.451 21.5694C267.331 21.5694 268.86 22.0939 270.04 23.1429C271.221 24.1481 271.811 25.4594 271.811 27.0766C271.811 28.7812 271.221 30.2017 270.04 31.3381C268.904 32.4308 267.374 32.9772 265.451 32.9772ZM296.841 73.6912C293.082 73.6912 289.738 72.9044 286.81 71.3309C283.925 69.7574 281.631 67.6158 279.926 64.9059C278.265 62.1523 277.435 59.0271 277.435 55.5305C277.435 51.9901 278.265 48.865 279.926 46.1551C281.631 43.4015 283.925 41.2598 286.81 39.73C289.738 38.1566 293.082 37.3698 296.841 37.3698C300.556 37.3698 303.878 38.1566 306.806 39.73C309.735 41.2598 312.03 43.3797 313.69 46.0896C315.351 48.7995 316.182 51.9464 316.182 55.5305C316.182 59.0271 315.351 62.1523 313.69 64.9059C312.03 67.6158 309.735 69.7574 306.806 71.3309C303.878 72.9044 300.556 73.6912 296.841 73.6912ZM296.841 65.2992C298.546 65.2992 300.075 64.9059 301.43 64.1191C302.785 63.3324 303.856 62.2178 304.643 60.7754C305.43 59.2894 305.823 57.5411 305.823 55.5305C305.823 53.4762 305.43 51.7279 304.643 50.2855C303.856 48.8432 302.785 47.7286 301.43 46.9419C300.075 46.1551 298.546 45.7617 296.841 45.7617C295.136 45.7617 293.607 46.1551 292.252 46.9419C290.897 47.7286 289.804 48.8432 288.974 50.2855C288.187 51.7279 287.793 53.4762 287.793 55.5305C287.793 57.5411 288.187 59.2894 288.974 60.7754C289.804 62.2178 290.897 63.3324 292.252 64.1191C293.607 64.9059 295.136 65.2992 296.841 65.2992ZM343.867 73.6912C340.895 73.6912 338.294 73.0355 336.065 71.7243C333.836 70.4131 332.088 68.4244 330.82 65.7582C329.596 63.0483 328.984 59.639 328.984 55.5305C328.984 51.3782 329.574 47.969 330.755 45.3028C331.935 42.6366 333.639 40.6479 335.868 39.3367C338.097 38.0254 340.764 37.3698 343.867 37.3698C347.189 37.3698 350.161 38.1347 352.783 39.6645C355.45 41.1506 357.548 43.2485 359.077 45.9584C360.651 48.6683 361.438 51.859 361.438 55.5305C361.438 59.2457 360.651 62.4582 359.077 65.1681C357.548 67.878 355.45 69.976 352.783 71.4621C350.161 72.9481 347.189 73.6912 343.867 73.6912ZM323.018 85.8857V37.8943H332.787V45.1061L332.59 55.5961L333.246 66.0204V85.8857H323.018ZM342.097 65.2992C343.801 65.2992 345.309 64.9059 346.621 64.1191C347.975 63.3324 349.046 62.2178 349.833 60.7754C350.664 59.2894 351.079 57.5411 351.079 55.5305C351.079 53.4762 350.664 51.7279 349.833 50.2855C349.046 48.8432 347.975 47.7286 346.621 46.9419C345.309 46.1551 343.801 45.7617 342.097 45.7617C340.392 45.7617 338.862 46.1551 337.507 46.9419C336.152 47.7286 335.082 48.8432 334.295 50.2855C333.508 51.7279 333.115 53.4762 333.115 55.5305C333.115 57.5411 333.508 59.2894 334.295 60.7754C335.082 62.2178 336.152 63.3324 337.507 64.1191C338.862 64.9059 340.392 65.2992 342.097 65.2992ZM368.284 73.1667V37.8943H378.053V47.8597L376.676 44.975C377.725 42.4836 379.408 40.6042 381.724 39.3367C384.041 38.0254 386.86 37.3698 390.182 37.3698V46.8107C389.745 46.767 389.351 46.7452 389.002 46.7452C388.652 46.7015 388.281 46.6796 387.887 46.6796C385.09 46.6796 382.817 47.4882 381.069 49.1054C379.364 50.6789 378.512 53.1484 378.512 56.5139V73.1667H368.284ZM435.022 73.1667L450.823 52.4491L450.626 58.0874L435.481 37.8943H446.954L456.527 51.0723L452.199 51.2034L462.099 37.8943H472.983L457.772 57.8907V52.3835L473.507 73.1667H461.903L451.872 59.1364L456.133 59.7265L446.168 73.1667H435.022Z" fill="#31383F"/>
<path d="M413.303 73.6912C409.544 73.6912 406.201 72.9044 403.272 71.3309C400.388 69.7574 398.093 67.6158 396.388 64.9059C394.727 62.1523 393.897 59.0271 393.897 55.5305C393.897 51.9901 394.727 48.865 396.388 46.1551C398.093 43.4015 400.388 41.2598 403.272 39.73C406.201 38.1566 409.544 37.3698 413.303 37.3698C417.018 37.3698 420.34 38.1566 423.269 39.73C426.197 41.2598 428.492 43.3797 430.153 46.0896C431.814 48.7995 432.644 51.9464 432.644 55.5305C432.644 59.0271 431.814 62.1523 430.153 64.9059C428.492 67.6158 426.197 69.7574 423.269 71.3309C420.34 72.9044 417.018 73.6912 413.303 73.6912ZM413.303 65.2992C415.008 65.2992 416.538 64.9059 417.893 64.1191C419.248 63.3324 420.318 62.2178 421.105 60.7754C421.892 59.2894 422.285 57.5411 422.285 55.5305C422.285 53.4762 421.892 51.7279 421.105 50.2855C420.318 48.8432 419.248 47.7286 417.893 46.9419C416.538 46.1551 415.008 45.7617 413.303 45.7617C411.599 45.7617 410.069 46.1551 408.714 46.9419C407.359 47.7286 406.266 48.8432 405.436 50.2855C404.649 51.7279 404.256 53.4762 404.256 55.5305C404.256 57.5411 404.649 59.2894 405.436 60.7754C406.266 62.2178 407.359 63.3324 408.714 64.1191C410.069 64.9059 411.599 65.2992 413.303 65.2992Z" fill="#C09150"/>
<path d="M202.18 109.566C200.626 109.566 199.188 109.314 197.867 108.809C196.566 108.284 195.43 107.556 194.458 106.623C193.506 105.672 192.758 104.564 192.215 103.302C191.671 102.039 191.399 100.65 191.399 99.1348C191.399 97.6196 191.671 96.2307 192.215 94.968C192.758 93.7053 193.516 92.6077 194.487 91.6753C195.459 90.7234 196.595 89.995 197.897 89.4899C199.218 88.9654 200.655 88.7032 202.209 88.7032C203.783 88.7032 205.23 88.9751 206.551 89.519C207.891 90.0435 209.028 90.8303 209.96 91.8793L208.066 93.715C207.289 92.8991 206.415 92.2969 205.443 91.9084C204.472 91.5005 203.433 91.2965 202.326 91.2965C201.18 91.2965 200.111 91.4908 199.12 91.8793C198.149 92.2678 197.304 92.8117 196.585 93.511C195.867 94.2104 195.303 95.0457 194.895 96.017C194.507 96.9688 194.313 98.0081 194.313 99.1348C194.313 100.262 194.507 101.31 194.895 102.282C195.303 103.234 195.867 104.059 196.585 104.759C197.304 105.458 198.149 106.002 199.12 106.39C200.111 106.779 201.18 106.973 202.326 106.973C203.433 106.973 204.472 106.779 205.443 106.39C206.415 105.982 207.289 105.361 208.066 104.525L209.96 106.361C209.028 107.41 207.891 108.207 206.551 108.751C205.23 109.294 203.773 109.566 202.18 109.566ZM222.336 109.508C220.781 109.508 219.402 109.168 218.198 108.488C216.993 107.808 216.042 106.876 215.342 105.691C214.643 104.487 214.293 103.127 214.293 101.612C214.293 100.077 214.643 98.7172 215.342 97.5322C216.042 96.3472 216.993 95.4245 218.198 94.764C219.402 94.0841 220.781 93.7442 222.336 93.7442C223.87 93.7442 225.24 94.0841 226.444 94.764C227.668 95.4245 228.62 96.3472 229.3 97.5322C229.999 98.6977 230.349 100.058 230.349 101.612C230.349 103.146 229.999 104.506 229.3 105.691C228.62 106.876 227.668 107.808 226.444 108.488C225.24 109.168 223.87 109.508 222.336 109.508ZM222.336 107.061C223.326 107.061 224.21 106.837 224.987 106.39C225.784 105.944 226.405 105.312 226.852 104.496C227.299 103.661 227.522 102.699 227.522 101.612C227.522 100.504 227.299 99.5525 226.852 98.756C226.405 97.9401 225.784 97.3088 224.987 96.862C224.21 96.4152 223.326 96.1918 222.336 96.1918C221.345 96.1918 220.461 96.4152 219.684 96.862C218.907 97.3088 218.285 97.9401 217.819 98.756C217.353 99.5525 217.12 100.504 217.12 101.612C217.12 102.699 217.353 103.661 217.819 104.496C218.285 105.312 218.907 105.944 219.684 106.39C220.461 106.837 221.345 107.061 222.336 107.061ZM256.203 93.7442C257.446 93.7442 258.544 93.987 259.496 94.4726C260.447 94.9583 261.186 95.6964 261.71 96.6872C262.254 97.6779 262.526 98.9308 262.526 100.446V109.333H259.729V100.767C259.729 99.2708 259.379 98.1441 258.68 97.3865C257.98 96.6289 256.999 96.2501 255.737 96.2501C254.804 96.2501 253.988 96.4443 253.289 96.8329C252.59 97.2214 252.046 97.7944 251.657 98.552C251.288 99.3096 251.104 100.252 251.104 101.378V109.333H248.306V100.767C248.306 99.2708 247.957 98.1441 247.257 97.3865C246.577 96.6289 245.596 96.2501 244.314 96.2501C243.401 96.2501 242.595 96.4443 241.896 96.8329C241.196 97.2214 240.653 97.7944 240.264 98.552C239.876 99.3096 239.681 100.252 239.681 101.378V109.333H236.884V93.8898H239.565V97.9984L239.128 96.9494C239.613 95.9393 240.361 95.1525 241.371 94.5892C242.381 94.0258 243.557 93.7442 244.897 93.7442C246.373 93.7442 247.646 94.1132 248.714 94.8514C249.783 95.5702 250.482 96.6677 250.812 98.1441L249.676 97.6779C250.142 96.4929 250.958 95.541 252.123 94.8223C253.289 94.1035 254.649 93.7442 256.203 93.7442ZM278.528 109.508C277.246 109.508 276.07 109.217 275.002 108.634C273.953 108.032 273.108 107.148 272.467 105.982C271.845 104.817 271.534 103.36 271.534 101.612C271.534 99.8633 271.835 98.4063 272.438 97.2408C273.059 96.0752 273.895 95.2011 274.944 94.6183C276.012 94.0355 277.207 93.7442 278.528 93.7442C280.043 93.7442 281.383 94.0744 282.549 94.7349C283.714 95.3953 284.637 96.3181 285.317 97.503C285.997 98.6686 286.337 100.038 286.337 101.612C286.337 103.185 285.997 104.564 285.317 105.749C284.637 106.934 283.714 107.857 282.549 108.517C281.383 109.178 280.043 109.508 278.528 109.508ZM270.34 114.986V93.8898H273.02V98.0567L272.846 101.641L273.137 105.225V114.986H270.34ZM278.295 107.061C279.285 107.061 280.169 106.837 280.946 106.39C281.743 105.944 282.364 105.312 282.811 104.496C283.277 103.661 283.51 102.699 283.51 101.612C283.51 100.504 283.277 99.5525 282.811 98.756C282.364 97.9401 281.743 97.3088 280.946 96.862C280.169 96.4152 279.285 96.1918 278.295 96.1918C277.323 96.1918 276.439 96.4152 275.643 96.862C274.866 97.3088 274.244 97.9401 273.778 98.756C273.331 99.5525 273.108 100.504 273.108 101.612C273.108 102.699 273.331 103.661 273.778 104.496C274.244 105.312 274.866 105.944 275.643 106.39C276.439 106.837 277.323 107.061 278.295 107.061ZM302.313 109.333V106.07L302.167 105.458V99.8924C302.167 98.7074 301.817 97.7944 301.118 97.1534C300.438 96.4929 299.409 96.1627 298.029 96.1627C297.116 96.1627 296.223 96.3181 295.349 96.6289C294.475 96.9203 293.736 97.3185 293.134 97.8236L291.969 95.7256C292.765 95.0845 293.717 94.5989 294.824 94.2686C295.951 93.919 297.126 93.7442 298.35 93.7442C300.467 93.7442 302.099 94.2589 303.245 95.2885C304.391 96.3181 304.964 97.8916 304.964 100.009V109.333H302.313ZM297.243 109.508C296.097 109.508 295.086 109.314 294.212 108.925C293.358 108.537 292.697 108.003 292.231 107.323C291.765 106.623 291.532 105.837 291.532 104.963C291.532 104.127 291.726 103.37 292.114 102.69C292.522 102.01 293.173 101.466 294.067 101.058C294.98 100.65 296.203 100.446 297.738 100.446H302.633V102.457H297.855C296.456 102.457 295.514 102.69 295.028 103.156C294.543 103.622 294.3 104.186 294.3 104.846C294.3 105.604 294.601 106.216 295.203 106.682C295.805 107.129 296.641 107.352 297.709 107.352C298.758 107.352 299.671 107.119 300.448 106.653C301.244 106.186 301.817 105.506 302.167 104.613L302.721 106.536C302.352 107.449 301.701 108.178 300.768 108.721C299.836 109.246 298.661 109.508 297.243 109.508ZM321.054 93.7442C322.317 93.7442 323.424 93.987 324.376 94.4726C325.347 94.9583 326.105 95.6964 326.649 96.6872C327.193 97.6779 327.465 98.9308 327.465 100.446V109.333H324.667V100.767C324.667 99.2708 324.298 98.1441 323.56 97.3865C322.841 96.6289 321.821 96.2501 320.5 96.2501C319.51 96.2501 318.645 96.4443 317.907 96.8329C317.169 97.2214 316.596 97.7944 316.188 98.552C315.799 99.3096 315.605 100.252 315.605 101.378V109.333H312.808V93.8898H315.489V98.0567L315.051 96.9494C315.557 95.9393 316.334 95.1525 317.383 94.5892C318.432 94.0258 319.655 93.7442 321.054 93.7442ZM335.694 115.161C334.956 115.161 334.237 115.035 333.537 114.782C332.838 114.549 332.236 114.2 331.731 113.733L332.926 111.635C333.314 112.004 333.741 112.286 334.208 112.48C334.674 112.675 335.169 112.772 335.694 112.772C336.374 112.772 336.937 112.597 337.384 112.247C337.831 111.898 338.248 111.276 338.637 110.382L339.598 108.255L339.89 107.906L345.951 93.8898H348.69L341.201 110.878C340.754 111.966 340.249 112.82 339.686 113.442C339.142 114.064 338.54 114.501 337.879 114.753C337.219 115.025 336.49 115.161 335.694 115.161ZM339.365 109.829L332.314 93.8898H335.228L341.23 107.643L339.365 109.829ZM370.811 109.566C369.257 109.566 367.771 109.333 366.353 108.867C364.935 108.381 363.818 107.76 363.002 107.002L364.08 104.729C364.857 105.409 365.848 105.973 367.052 106.419C368.257 106.866 369.51 107.09 370.811 107.09C371.996 107.09 372.958 106.954 373.696 106.682C374.434 106.41 374.978 106.041 375.328 105.574C375.677 105.089 375.852 104.545 375.852 103.943C375.852 103.243 375.619 102.68 375.153 102.253C374.706 101.825 374.114 101.485 373.375 101.233C372.657 100.961 371.86 100.728 370.986 100.533C370.112 100.339 369.228 100.116 368.334 99.8633C367.46 99.5913 366.654 99.2514 365.916 98.8434C365.197 98.4355 364.614 97.8916 364.167 97.2117C363.721 96.5123 363.497 95.6187 363.497 94.5309C363.497 93.4819 363.769 92.5203 364.313 91.6462C364.877 90.7526 365.731 90.0435 366.877 89.519C368.043 88.9751 369.519 88.7032 371.306 88.7032C372.491 88.7032 373.667 88.8586 374.832 89.1694C375.998 89.4802 377.008 89.927 377.863 90.5098L376.901 92.8409C376.027 92.2581 375.104 91.8404 374.133 91.5879C373.162 91.3159 372.219 91.1799 371.306 91.1799C370.16 91.1799 369.218 91.3256 368.48 91.617C367.742 91.9084 367.198 92.2969 366.848 92.7826C366.518 93.2682 366.353 93.8121 366.353 94.4143C366.353 95.1331 366.576 95.7062 367.023 96.1335C367.489 96.5609 368.082 96.9008 368.801 97.1534C369.539 97.4059 370.345 97.639 371.219 97.8527C372.093 98.047 372.967 98.2704 373.842 98.5229C374.735 98.7754 375.541 99.1057 376.26 99.5136C376.998 99.9216 377.591 100.465 378.038 101.145C378.484 101.825 378.708 102.699 378.708 103.768C378.708 104.797 378.426 105.759 377.863 106.653C377.299 107.527 376.425 108.236 375.24 108.78C374.075 109.304 372.598 109.566 370.811 109.566ZM385.223 109.333V87.7124H388.021V109.333H385.223ZM402.643 109.508C401.089 109.508 399.71 109.168 398.505 108.488C397.301 107.808 396.349 106.876 395.65 105.691C394.95 104.487 394.601 103.127 394.601 101.612C394.601 100.077 394.95 98.7172 395.65 97.5322C396.349 96.3472 397.301 95.4245 398.505 94.764C399.71 94.0841 401.089 93.7442 402.643 93.7442C404.178 93.7442 405.547 94.0841 406.751 94.764C407.975 95.4245 408.927 96.3472 409.607 97.5322C410.306 98.6977 410.656 100.058 410.656 101.612C410.656 103.146 410.306 104.506 409.607 105.691C408.927 106.876 407.975 107.808 406.751 108.488C405.547 109.168 404.178 109.508 402.643 109.508ZM402.643 107.061C403.634 107.061 404.517 106.837 405.295 106.39C406.091 105.944 406.713 105.312 407.159 104.496C407.606 103.661 407.83 102.699 407.83 101.612C407.83 100.504 407.606 99.5525 407.159 98.756C406.713 97.9401 406.091 97.3088 405.295 96.862C404.517 96.4152 403.634 96.1918 402.643 96.1918C401.652 96.1918 400.768 96.4152 399.991 96.862C399.214 97.3088 398.593 97.9401 398.126 98.756C397.66 99.5525 397.427 100.504 397.427 101.612C397.427 102.699 397.66 103.661 398.126 104.496C398.593 105.312 399.214 105.944 399.991 106.39C400.768 106.837 401.652 107.061 402.643 107.061ZM423.951 115.161C422.533 115.161 421.154 114.957 419.814 114.549C418.493 114.161 417.415 113.597 416.579 112.859L417.92 110.703C418.639 111.324 419.522 111.81 420.571 112.16C421.62 112.529 422.718 112.713 423.864 112.713C425.69 112.713 427.03 112.286 427.885 111.431C428.74 110.577 429.167 109.275 429.167 107.527V104.263L429.459 101.204L429.313 98.115V93.8898H431.965V107.235C431.965 109.955 431.285 111.956 429.925 113.238C428.565 114.52 426.574 115.161 423.951 115.161ZM423.602 108.692C422.106 108.692 420.766 108.381 419.581 107.76C418.415 107.119 417.483 106.235 416.783 105.108C416.103 103.982 415.764 102.68 415.764 101.204C415.764 99.7079 416.103 98.4063 416.783 97.2991C417.483 96.1724 418.415 95.2982 419.581 94.6766C420.766 94.055 422.106 93.7442 423.602 93.7442C424.923 93.7442 426.127 94.0161 427.215 94.56C428.303 95.0845 429.167 95.9004 429.808 97.0077C430.469 98.115 430.799 99.5136 430.799 101.204C430.799 102.874 430.469 104.263 429.808 105.37C429.167 106.478 428.303 107.313 427.215 107.876C426.127 108.42 424.923 108.692 423.602 108.692ZM423.922 106.245C424.952 106.245 425.865 106.031 426.661 105.604C427.458 105.176 428.079 104.584 428.526 103.826C428.992 103.069 429.226 102.194 429.226 101.204C429.226 100.213 428.992 99.3388 428.526 98.5812C428.079 97.8236 427.458 97.2408 426.661 96.8329C425.865 96.4055 424.952 96.1918 423.922 96.1918C422.893 96.1918 421.97 96.4055 421.154 96.8329C420.358 97.2408 419.726 97.8236 419.26 98.5812C418.813 99.3388 418.59 100.213 418.59 101.204C418.59 102.194 418.813 103.069 419.26 103.826C419.726 104.584 420.358 105.176 421.154 105.604C421.97 106.031 422.893 106.245 423.922 106.245ZM449.563 109.333V106.07L449.417 105.458V99.8924C449.417 98.7074 449.067 97.7944 448.368 97.1534C447.688 96.4929 446.659 96.1627 445.279 96.1627C444.366 96.1627 443.473 96.3181 442.599 96.6289C441.724 96.9203 440.986 97.3185 440.384 97.8236L439.219 95.7256C440.015 95.0845 440.967 94.5989 442.074 94.2686C443.201 93.919 444.376 93.7442 445.6 93.7442C447.717 93.7442 449.349 94.2589 450.495 95.2885C451.641 96.3181 452.214 97.8916 452.214 100.009V109.333H449.563ZM444.493 109.508C443.347 109.508 442.336 109.314 441.462 108.925C440.608 108.537 439.947 108.003 439.481 107.323C439.015 106.623 438.781 105.837 438.781 104.963C438.781 104.127 438.976 103.37 439.364 102.69C439.772 102.01 440.423 101.466 441.317 101.058C442.23 100.65 443.453 100.446 444.988 100.446H449.883V102.457H445.105C443.706 102.457 442.764 102.69 442.278 103.156C441.792 103.622 441.55 104.186 441.55 104.846C441.55 105.604 441.851 106.216 442.453 106.682C443.055 107.129 443.89 107.352 444.959 107.352C446.008 107.352 446.921 107.119 447.698 106.653C448.494 106.186 449.067 105.506 449.417 104.613L449.971 106.536C449.602 107.449 448.951 108.178 448.018 108.721C447.086 109.246 445.911 109.508 444.493 109.508ZM468.304 93.7442C469.567 93.7442 470.674 93.987 471.626 94.4726C472.597 94.9583 473.355 95.6964 473.899 96.6872C474.443 97.6779 474.715 98.9308 474.715 100.446V109.333H471.917V100.767C471.917 99.2708 471.548 98.1441 470.81 97.3865C470.091 96.6289 469.071 96.2501 467.75 96.2501C466.76 96.2501 465.895 96.4443 465.157 96.8329C464.419 97.2214 463.846 97.7944 463.438 98.552C463.049 99.3096 462.855 100.252 462.855 101.378V109.333H460.058V93.8898H462.739V98.0567L462.301 96.9494C462.806 95.9393 463.584 95.1525 464.633 94.5892C465.682 94.0258 466.905 93.7442 468.304 93.7442Z" fill="#31383F"/>
<path fill-rule="evenodd" clip-rule="evenodd" d="M27.3193 19.1728C38.0395 0.832039 61.8726 -5.47134 80.4476 5.12131C84.6346 7.50922 88.2025 10.5549 91.0949 14.0506C103.276 2.9852 121.816 0.452316 136.892 9.04984C155.467 19.6427 161.857 43.1819 151.136 61.5229C151.136 61.5229 132.344 93.6745 115.801 121.977L84.8587 121.724L127.819 48.2251C131.119 42.5799 129.152 35.3342 123.434 32.0738C117.717 28.8132 110.381 30.7535 107.081 36.3991L94.7747 57.4533C94.7475 57.5003 94.7201 57.5474 94.6927 57.5944L72.5302 95.5105C72.5116 95.5424 72.493 95.5742 72.4743 95.6059L57.1321 121.854L25.5715 122.049L30.4222 113.801C26.6429 112.974 22.9275 111.572 19.4016 109.562C0.826916 98.9686 -5.56298 75.4296 5.15729 57.0888L27.3193 19.1728ZM71.9363 43.212L47.9826 83.9418C44.3161 88.2225 37.9468 89.4389 32.859 86.5377C27.1415 83.2771 25.1751 76.0317 28.4745 70.3863L50.6366 32.4703C53.9367 26.825 61.2724 24.8849 66.99 28.1452C72.3472 31.2003 74.412 37.754 71.9363 43.212Z" fill="#C09150"/>
</g>
<defs>
<clipPath id="clip0_0_26">
<rect width="469" height="122" fill="white"/>
</clipPath>
</defs>
</svg>
