<svg width="157" height="122" viewBox="0 0 157 122" fill="none" xmlns="http://www.w3.org/2000/svg">
<path fill-rule="evenodd" clip-rule="evenodd" d="M27.3193 19.1728C38.0395 0.832039 61.8726 -5.47134 80.4476 5.12131C84.6346 7.50922 88.2025 10.5549 91.0949 14.0506C103.276 2.9852 121.816 0.452316 136.892 9.04984C155.467 19.6427 161.857 43.1819 151.136 61.5229C151.136 61.5229 132.344 93.6745 115.801 121.977L84.8587 121.724L127.819 48.2251C131.119 42.5799 129.152 35.3342 123.434 32.0738C117.717 28.8132 110.381 30.7535 107.081 36.3991L94.7747 57.4533C94.7475 57.5003 94.7201 57.5474 94.6927 57.5944L72.5302 95.5105C72.5116 95.5424 72.493 95.5742 72.4743 95.6059L57.1321 121.854L25.5715 122.049L30.4222 113.801C26.6429 112.974 22.9275 111.572 19.4016 109.562C0.826916 98.9686 -5.56298 75.4296 5.15729 57.0888L27.3193 19.1728ZM71.9363 43.212L47.9826 83.9418C44.3161 88.2225 37.9468 89.4389 32.859 86.5377C27.1415 83.2771 25.1751 76.0317 28.4745 70.3863L50.6366 32.4703C53.9367 26.825 61.2724 24.8849 66.99 28.1452C72.3472 31.2003 74.412 37.754 71.9363 43.212Z" fill="#C09150"/>
</svg>
